<?xml version="1.0" encoding="utf-8" standalone="no"?>
<!DOCTYPE svg PUBLIC "-//W3C//DTD SVG 1.1//EN"
  "http://www.w3.org/Graphics/SVG/1.1/DTD/svg11.dtd">
<svg xmlns:xlink="http://www.w3.org/1999/xlink" width="342.47952pt" height="270.88776pt" viewBox="0 0 342.47952 270.88776" xmlns="http://www.w3.org/2000/svg" version="1.1">
 <metadata>
  <rdf:RDF xmlns:dc="http://purl.org/dc/elements/1.1/" xmlns:cc="http://creativecommons.org/ns#" xmlns:rdf="http://www.w3.org/1999/02/22-rdf-syntax-ns#">
   <cc:Work>
    <dc:type rdf:resource="http://purl.org/dc/dcmitype/StillImage"/>
    <dc:date>2026-07-18T19:01:18.267973</dc:date>
    <dc:format>image/svg+xml</dc:format>
    <dc:creator>
     <cc:Agent>
      <dc:title>Matplotlib v3.10.8, https://matplotlib.org/</dc:title>
     </cc:Agent>
    </dc:creator>
   </cc:Work>
  </rdf:RDF>
 </metadata>
 <defs>
  <style type="text/css">*{stroke-linejoin: round; stroke-linecap: butt}</style>
 </defs>
 <g id="figure_1">
  <g id="patch_1">
   <path d="M 0 270.88776 
L 342.47952 270.88776 
L 342.47952 0 
L 0 0 
z
" style="fill: #ffffff"/>
  </g>
  <g id="axes_1">
   <g id="patch_2">
    <path d="M 41.867969 234.311041 
L 333.83952 234.311041 
L 333.83952 26.266756 
L 41.867969 26.266756 
z
" style="fill: #ffffff"/>
   </g>
   <g id="line2d_1">
    <path d="M 55.139403 46.663254 
L 108.225139 56.657539 
L 161.310876 68.283543 
L 214.396613 80.521442 
L 320.568086 93.167271 
" clip-path="url(#p9f7ccc1c61)" style="fill: none; stroke: #c7c7c7; stroke-opacity: 0.75; stroke-width: 0.7; stroke-linecap: square"/>
   </g>
   <g id="line2d_2">
    <path d="M 55.139403 44.623604 
L 108.225139 56.861504 
L 161.310876 66.243893 
L 214.396613 74.402492 
L 320.568086 100.306046 
" clip-path="url(#p9f7ccc1c61)" style="fill: none; stroke: #c7c7c7; stroke-opacity: 0.75; stroke-width: 0.7; stroke-linecap: square"/>
   </g>
   <g id="line2d_3">
    <path d="M 55.139403 113.9717 
L 108.225139 121.926334 
L 161.310876 126.209599 
L 214.396613 132.124583 
L 320.568086 139.671288 
" clip-path="url(#p9f7ccc1c61)" style="fill: none; stroke: #c7c7c7; stroke-opacity: 0.75; stroke-width: 0.7; stroke-linecap: square"/>
   </g>
   <g id="line2d_4">
    <path d="M 55.139403 69.099403 
L 108.225139 78.889722 
L 161.310876 87.048321 
L 214.396613 90.515726 
L 320.568086 109.688435 
" clip-path="url(#p9f7ccc1c61)" style="fill: none; stroke: #c7c7c7; stroke-opacity: 0.75; stroke-width: 0.7; stroke-linecap: square"/>
   </g>
   <g id="line2d_5">
    <path d="M 55.139403 152.725047 
L 108.225139 155.988487 
L 161.310876 154.968662 
L 214.396613 149.869537 
L 320.568086 145.994202 
" clip-path="url(#p9f7ccc1c61)" style="fill: none; stroke: #c7c7c7; stroke-opacity: 0.75; stroke-width: 0.7; stroke-linecap: square"/>
   </g>
   <g id="line2d_6">
    <path d="M 55.139403 105.8131 
L 108.225139 126.209599 
L 161.310876 134.164233 
L 214.396613 128.657179 
L 320.568086 131.308723 
" clip-path="url(#p9f7ccc1c61)" style="fill: none; stroke: #c7c7c7; stroke-opacity: 0.75; stroke-width: 0.7; stroke-linecap: square"/>
   </g>
   <g id="line2d_7">
    <path d="M 55.139403 30.346055 
L 108.225139 30.95795 
L 161.310876 35.649145 
L 214.396613 36.872935 
L 320.568086 64.816138 
" clip-path="url(#p9f7ccc1c61)" style="fill: none; stroke: #c7c7c7; stroke-opacity: 0.75; stroke-width: 0.7; stroke-linecap: square"/>
   </g>
   <g id="line2d_8">
    <path d="M 55.139403 99.694151 
L 108.225139 124.373914 
L 161.310876 138.855428 
L 214.396613 137.223708 
L 320.568086 149.257642 
" clip-path="url(#p9f7ccc1c61)" style="fill: none; stroke: #c7c7c7; stroke-opacity: 0.75; stroke-width: 0.7; stroke-linecap: square"/>
   </g>
   <g id="line2d_9">
    <path d="M 55.139403 138.447498 
L 108.225139 144.974377 
L 161.310876 146.606097 
L 214.396613 147.217992 
L 320.568086 143.954552 
" clip-path="url(#p9f7ccc1c61)" style="fill: none; stroke: #c7c7c7; stroke-opacity: 0.75; stroke-width: 0.7; stroke-linecap: square"/>
   </g>
   <g id="line2d_10">
    <path d="M 55.139403 116.011349 
L 108.225139 128.453214 
L 161.310876 131.104758 
L 214.396613 130.288898 
L 320.568086 134.572163 
" clip-path="url(#p9f7ccc1c61)" style="fill: none; stroke: #c7c7c7; stroke-opacity: 0.75; stroke-width: 0.7; stroke-linecap: square"/>
   </g>
   <g id="line2d_11">
    <path d="M 55.139403 83.376952 
L 108.225139 90.719691 
L 161.310876 104.793275 
L 214.396613 104.793275 
L 320.568086 122.538229 
" clip-path="url(#p9f7ccc1c61)" style="fill: none; stroke: #c7c7c7; stroke-opacity: 0.75; stroke-width: 0.7; stroke-linecap: square"/>
   </g>
   <g id="line2d_12">
    <path d="M 55.139403 71.139053 
L 108.225139 74.402492 
L 161.310876 80.317477 
L 214.396613 80.113512 
L 320.568086 90.311761 
" clip-path="url(#p9f7ccc1c61)" style="fill: none; stroke: #c7c7c7; stroke-opacity: 0.75; stroke-width: 0.7; stroke-linecap: square"/>
   </g>
   <g id="line2d_13">
    <path d="M 55.139403 93.575201 
L 108.225139 92.555376 
L 161.310876 101.529835 
L 214.396613 97.858466 
L 320.568086 111.320155 
" clip-path="url(#p9f7ccc1c61)" style="fill: none; stroke: #c7c7c7; stroke-opacity: 0.75; stroke-width: 0.7; stroke-linecap: square"/>
   </g>
   <g id="line2d_14">
    <path d="M 55.139403 128.249249 
L 108.225139 124.373914 
L 161.310876 122.130299 
L 214.396613 119.682719 
L 320.568086 122.742194 
" clip-path="url(#p9f7ccc1c61)" style="fill: none; stroke: #c7c7c7; stroke-opacity: 0.75; stroke-width: 0.7; stroke-linecap: square"/>
   </g>
   <g id="line2d_15">
    <path d="M 55.139403 56.861504 
L 108.225139 77.054037 
L 161.310876 94.187096 
L 214.396613 98.470361 
L 320.568086 122.946159 
" clip-path="url(#p9f7ccc1c61)" style="fill: none; stroke: #c7c7c7; stroke-opacity: 0.75; stroke-width: 0.7; stroke-linecap: square"/>
   </g>
   <g id="line2d_16">
    <path d="M 55.139403 120.090649 
L 108.225139 122.130299 
L 161.310876 137.427673 
L 214.396613 124.577879 
L 320.568086 125.801669 
" clip-path="url(#p9f7ccc1c61)" style="fill: none; stroke: #c7c7c7; stroke-opacity: 0.75; stroke-width: 0.7; stroke-linecap: square"/>
   </g>
   <g id="line2d_17">
    <path d="M 55.139403 148.645747 
L 108.225139 158.640031 
L 161.310876 168.838281 
L 214.396613 162.719331 
L 320.568086 170.266036 
" clip-path="url(#p9f7ccc1c61)" style="fill: none; stroke: #c7c7c7; stroke-opacity: 0.75; stroke-width: 0.7; stroke-linecap: square"/>
   </g>
   <g id="line2d_18">
    <path d="M 55.139403 116.011349 
L 108.225139 127.841319 
L 161.310876 127.637354 
L 214.396613 137.019743 
L 320.568086 130.288898 
" clip-path="url(#p9f7ccc1c61)" style="fill: none; stroke: #c7c7c7; stroke-opacity: 0.75; stroke-width: 0.7; stroke-linecap: square"/>
   </g>
   <g id="line2d_19">
    <path d="M 55.139403 116.011349 
L 108.225139 119.682719 
L 161.310876 126.413564 
L 214.396613 130.084933 
L 320.568086 126.617529 
" clip-path="url(#p9f7ccc1c61)" style="fill: none; stroke: #c7c7c7; stroke-opacity: 0.75; stroke-width: 0.7; stroke-linecap: square"/>
   </g>
   <g id="line2d_20">
    <path d="M 55.139403 89.495901 
L 108.225139 99.082256 
L 161.310876 102.95759 
L 214.396613 105.40517 
L 320.568086 116.215314 
" clip-path="url(#p9f7ccc1c61)" style="fill: none; stroke: #c7c7c7; stroke-opacity: 0.75; stroke-width: 0.7; stroke-linecap: square"/>
   </g>
   <g id="line2d_21">
    <path d="M 55.139403 128.249249 
L 108.225139 135.388023 
L 161.310876 141.506973 
L 214.396613 143.954552 
L 320.568086 145.382307 
" clip-path="url(#p9f7ccc1c61)" style="fill: none; stroke: #c7c7c7; stroke-opacity: 0.75; stroke-width: 0.7; stroke-linecap: square"/>
   </g>
   <g id="line2d_22">
    <path d="M 55.139403 46.663254 
L 108.225139 52.374274 
L 161.310876 60.940803 
L 214.396613 80.521442 
L 320.568086 100.102081 
" clip-path="url(#p9f7ccc1c61)" style="fill: none; stroke: #c7c7c7; stroke-opacity: 0.75; stroke-width: 0.7; stroke-linecap: square"/>
   </g>
   <g id="line2d_23">
    <path d="M 55.139403 116.011349 
L 108.225139 119.682719 
L 161.310876 117.235139 
L 214.396613 113.56377 
L 320.568086 111.93205 
" clip-path="url(#p9f7ccc1c61)" style="fill: none; stroke: #c7c7c7; stroke-opacity: 0.75; stroke-width: 0.7; stroke-linecap: square"/>
   </g>
   <g id="line2d_24">
    <path d="M 55.139403 105.8131 
L 108.225139 105.609135 
L 161.310876 116.011349 
L 214.396613 112.543945 
L 320.568086 124.577879 
" clip-path="url(#p9f7ccc1c61)" style="fill: none; stroke: #c7c7c7; stroke-opacity: 0.75; stroke-width: 0.7; stroke-linecap: square"/>
   </g>
   <g id="line2d_25">
    <path d="M 55.139403 116.011349 
L 108.225139 134.164233 
L 161.310876 145.382307 
L 214.396613 143.138693 
L 320.568086 148.033852 
" clip-path="url(#p9f7ccc1c61)" style="fill: none; stroke: #c7c7c7; stroke-opacity: 0.75; stroke-width: 0.7; stroke-linecap: square"/>
   </g>
   <g id="line2d_26">
    <path d="M 55.139403 67.059753 
L 108.225139 81.133337 
L 161.310876 93.575201 
L 214.396613 99.694151 
L 320.568086 111.93205 
" clip-path="url(#p9f7ccc1c61)" style="fill: none; stroke: #c7c7c7; stroke-opacity: 0.75; stroke-width: 0.7; stroke-linecap: square"/>
   </g>
   <g id="line2d_27">
    <path d="M 55.139403 103.77345 
L 108.225139 108.26068 
L 161.310876 119.070824 
L 214.396613 123.150124 
L 320.568086 121.518404 
" clip-path="url(#p9f7ccc1c61)" style="fill: none; stroke: #c7c7c7; stroke-opacity: 0.75; stroke-width: 0.7; stroke-linecap: square"/>
   </g>
   <g id="line2d_28">
    <path d="M 55.139403 167.002596 
L 108.225139 156.396417 
L 161.310876 147.421957 
L 214.396613 147.014027 
L 320.568086 147.829887 
" clip-path="url(#p9f7ccc1c61)" style="fill: none; stroke: #c7c7c7; stroke-opacity: 0.75; stroke-width: 0.7; stroke-linecap: square"/>
   </g>
   <g id="line2d_29">
    <path d="M 55.139403 32.385705 
L 108.225139 42.991884 
L 161.310876 53.598064 
L 214.396613 57.473398 
L 320.568086 76.442142 
" clip-path="url(#p9f7ccc1c61)" style="fill: none; stroke: #c7c7c7; stroke-opacity: 0.75; stroke-width: 0.7; stroke-linecap: square"/>
   </g>
   <g id="line2d_30">
    <path d="M 55.139403 142.526798 
L 108.225139 147.217992 
L 161.310876 143.954552 
L 214.396613 145.178342 
L 320.568086 165.370876 
" clip-path="url(#p9f7ccc1c61)" style="fill: none; stroke: #c7c7c7; stroke-opacity: 0.75; stroke-width: 0.7; stroke-linecap: square"/>
   </g>
   <g id="line2d_31">
    <path d="M 55.139403 65.020103 
L 108.225139 83.376952 
L 161.310876 90.719691 
L 214.396613 84.600742 
L 320.568086 95.614851 
" clip-path="url(#p9f7ccc1c61)" style="fill: none; stroke: #c7c7c7; stroke-opacity: 0.75; stroke-width: 0.7; stroke-linecap: square"/>
   </g>
   <g id="line2d_32">
    <path d="M 55.139403 38.504655 
L 108.225139 44.623604 
L 161.310876 58.493223 
L 214.396613 63.592348 
L 320.568086 88.680041 
" clip-path="url(#p9f7ccc1c61)" style="fill: none; stroke: #c7c7c7; stroke-opacity: 0.75; stroke-width: 0.7; stroke-linecap: square"/>
   </g>
   <g id="line2d_33">
    <path d="M 55.139403 87.456251 
L 108.225139 97.858466 
L 161.310876 112.543945 
L 214.396613 107.44482 
L 320.568086 121.110474 
" clip-path="url(#p9f7ccc1c61)" style="fill: none; stroke: #c7c7c7; stroke-opacity: 0.75; stroke-width: 0.7; stroke-linecap: square"/>
   </g>
   <g id="line2d_34">
    <path d="M 55.139403 38.504655 
L 108.225139 44.215674 
L 161.310876 51.966344 
L 214.396613 59.920978 
L 320.568086 69.711298 
" clip-path="url(#p9f7ccc1c61)" style="fill: none; stroke: #c7c7c7; stroke-opacity: 0.75; stroke-width: 0.7; stroke-linecap: square"/>
   </g>
   <g id="line2d_35">
    <path d="M 55.139403 54.821854 
L 108.225139 64.816138 
L 161.310876 80.725407 
L 214.396613 83.172987 
L 320.568086 101.937765 
" clip-path="url(#p9f7ccc1c61)" style="fill: none; stroke: #c7c7c7; stroke-opacity: 0.75; stroke-width: 0.7; stroke-linecap: square"/>
   </g>
   <g id="line2d_36">
    <path d="M 55.139403 116.011349 
L 108.225139 115.603419 
L 161.310876 124.781844 
L 214.396613 132.940443 
L 320.568086 147.217992 
" clip-path="url(#p9f7ccc1c61)" style="fill: none; stroke: #c7c7c7; stroke-opacity: 0.75; stroke-width: 0.7; stroke-linecap: square"/>
   </g>
   <g id="line2d_37">
    <path d="M 55.139403 142.526798 
L 108.225139 144.362482 
L 161.310876 138.243533 
L 214.396613 152.113152 
L 320.568086 146.402132 
" clip-path="url(#p9f7ccc1c61)" style="fill: none; stroke: #c7c7c7; stroke-opacity: 0.75; stroke-width: 0.7; stroke-linecap: square"/>
   </g>
   <g id="line2d_38">
    <path d="M 55.139403 130.288898 
L 108.225139 130.288898 
L 161.310876 132.328548 
L 214.396613 127.841319 
L 320.568086 135.591988 
" clip-path="url(#p9f7ccc1c61)" style="fill: none; stroke: #c7c7c7; stroke-opacity: 0.75; stroke-width: 0.7; stroke-linecap: square"/>
   </g>
   <g id="line2d_39">
    <path d="M 55.139403 111.93205 
L 108.225139 110.70826 
L 161.310876 110.504295 
L 214.396613 104.793275 
L 320.568086 102.14173 
" clip-path="url(#p9f7ccc1c61)" style="fill: none; stroke: #c7c7c7; stroke-opacity: 0.75; stroke-width: 0.7; stroke-linecap: square"/>
   </g>
   <g id="line2d_40">
    <path d="M 55.139403 105.8131 
L 108.225139 118.458929 
L 161.310876 133.552338 
L 214.396613 141.506973 
L 320.568086 142.118868 
" clip-path="url(#p9f7ccc1c61)" style="fill: none; stroke: #c7c7c7; stroke-opacity: 0.75; stroke-width: 0.7; stroke-linecap: square"/>
   </g>
   <g id="line2d_41">
    <path d="M 55.139403 103.77345 
L 108.225139 124.169949 
L 161.310876 143.546623 
L 214.396613 134.776128 
L 320.568086 141.914903 
" clip-path="url(#p9f7ccc1c61)" style="fill: none; stroke: #c7c7c7; stroke-opacity: 0.75; stroke-width: 0.7; stroke-linecap: square"/>
   </g>
   <g id="line2d_42">
    <path d="M 55.139403 32.385705 
L 108.225139 41.768095 
L 161.310876 55.433749 
L 214.396613 59.920978 
L 320.568086 91.739516 
" clip-path="url(#p9f7ccc1c61)" style="fill: none; stroke: #c7c7c7; stroke-opacity: 0.75; stroke-width: 0.7; stroke-linecap: square"/>
   </g>
   <g id="line2d_43">
    <path d="M 55.139403 56.861504 
L 108.225139 63.592348 
L 161.310876 80.929372 
L 214.396613 91.739516 
L 320.568086 105.201205 
" clip-path="url(#p9f7ccc1c61)" style="fill: none; stroke: #c7c7c7; stroke-opacity: 0.75; stroke-width: 0.7; stroke-linecap: square"/>
   </g>
   <g id="line2d_44">
    <path d="M 55.139403 97.654501 
L 108.225139 99.490186 
L 161.310876 106.22103 
L 214.396613 108.26068 
L 320.568086 107.648785 
" clip-path="url(#p9f7ccc1c61)" style="fill: none; stroke: #c7c7c7; stroke-opacity: 0.75; stroke-width: 0.7; stroke-linecap: square"/>
   </g>
   <g id="line2d_45">
    <path d="M 55.139403 136.407848 
L 108.225139 134.776128 
L 161.310876 137.631638 
L 214.396613 140.487148 
L 320.568086 141.099043 
" clip-path="url(#p9f7ccc1c61)" style="fill: none; stroke: #c7c7c7; stroke-opacity: 0.75; stroke-width: 0.7; stroke-linecap: square"/>
   </g>
   <g id="line2d_46">
    <path d="M 55.139403 136.407848 
L 108.225139 152.317117 
L 161.310876 158.028137 
L 214.396613 157.620207 
L 320.568086 143.546623 
" clip-path="url(#p9f7ccc1c61)" style="fill: none; stroke: #c7c7c7; stroke-opacity: 0.75; stroke-width: 0.7; stroke-linecap: square"/>
   </g>
   <g id="line2d_47">
    <path d="M 55.139403 116.011349 
L 108.225139 113.359805 
L 161.310876 108.056715 
L 214.396613 104.385345 
L 320.568086 99.082256 
" clip-path="url(#p9f7ccc1c61)" style="fill: none; stroke: #c7c7c7; stroke-opacity: 0.75; stroke-width: 0.7; stroke-linecap: square"/>
   </g>
   <g id="line2d_48">
    <path d="M 55.139403 58.901153 
L 108.225139 65.631998 
L 161.310876 79.093687 
L 214.396613 81.337302 
L 320.568086 92.351411 
" clip-path="url(#p9f7ccc1c61)" style="fill: none; stroke: #c7c7c7; stroke-opacity: 0.75; stroke-width: 0.7; stroke-linecap: square"/>
   </g>
   <g id="line2d_49">
    <path d="M 55.139403 40.544305 
L 108.225139 51.354449 
L 161.310876 60.328908 
L 214.396613 69.711298 
L 320.568086 89.291936 
" clip-path="url(#p9f7ccc1c61)" style="fill: none; stroke: #c7c7c7; stroke-opacity: 0.75; stroke-width: 0.7; stroke-linecap: square"/>
   </g>
   <g id="line2d_50">
    <path d="M 55.139403 101.7338 
L 108.225139 107.44482 
L 161.310876 108.66861 
L 214.396613 111.320155 
L 320.568086 116.419279 
" clip-path="url(#p9f7ccc1c61)" style="fill: none; stroke: #c7c7c7; stroke-opacity: 0.75; stroke-width: 0.7; stroke-linecap: square"/>
   </g>
   <g id="line2d_51">
    <path d="M 55.139403 71.139053 
L 108.225139 88.272111 
L 161.310876 97.654501 
L 214.396613 118.254964 
L 320.568086 129.065109 
" clip-path="url(#p9f7ccc1c61)" style="fill: none; stroke: #c7c7c7; stroke-opacity: 0.75; stroke-width: 0.7; stroke-linecap: square"/>
   </g>
   <g id="line2d_52">
    <path d="M 55.139403 50.742554 
L 108.225139 60.532873 
L 161.310876 74.810422 
L 214.396613 77.258002 
L 320.568086 104.99724 
" clip-path="url(#p9f7ccc1c61)" style="fill: none; stroke: #c7c7c7; stroke-opacity: 0.75; stroke-width: 0.7; stroke-linecap: square"/>
   </g>
   <g id="line2d_53">
    <path d="M 55.139403 44.623604 
L 108.225139 53.802029 
L 161.310876 60.532873 
L 214.396613 62.164593 
L 320.568086 77.461967 
" clip-path="url(#p9f7ccc1c61)" style="fill: none; stroke: #c7c7c7; stroke-opacity: 0.75; stroke-width: 0.7; stroke-linecap: square"/>
   </g>
   <g id="line2d_54">
    <path d="M 55.139403 50.742554 
L 108.225139 70.323193 
L 161.310876 73.994562 
L 214.396613 76.442142 
L 320.568086 82.561092 
" clip-path="url(#p9f7ccc1c61)" style="fill: none; stroke: #c7c7c7; stroke-opacity: 0.75; stroke-width: 0.7; stroke-linecap: square"/>
   </g>
   <g id="line2d_55">
    <path d="M 55.139403 30.346055 
L 108.225139 34.62932 
L 161.310876 49.722729 
L 214.396613 58.085293 
L 320.568086 76.646107 
" clip-path="url(#p9f7ccc1c61)" style="fill: none; stroke: #c7c7c7; stroke-opacity: 0.75; stroke-width: 0.7; stroke-linecap: square"/>
   </g>
   <g id="line2d_56">
    <path d="M 55.139403 32.385705 
L 108.225139 37.688795 
L 161.310876 41.768095 
L 214.396613 41.97206 
L 320.568086 47.275149 
" clip-path="url(#p9f7ccc1c61)" style="fill: none; stroke: #c7c7c7; stroke-opacity: 0.75; stroke-width: 0.7; stroke-linecap: square"/>
   </g>
   <g id="line2d_57">
    <path d="M 55.139403 130.288898 
L 108.225139 142.322833 
L 161.310876 156.396417 
L 214.396613 153.540907 
L 320.568086 156.804347 
" clip-path="url(#p9f7ccc1c61)" style="fill: none; stroke: #c7c7c7; stroke-opacity: 0.75; stroke-width: 0.7; stroke-linecap: square"/>
   </g>
   <g id="line2d_58">
    <path d="M 55.139403 136.407848 
L 108.225139 139.875253 
L 161.310876 137.019743 
L 214.396613 135.999918 
L 320.568086 137.427673 
" clip-path="url(#p9f7ccc1c61)" style="fill: none; stroke: #c7c7c7; stroke-opacity: 0.75; stroke-width: 0.7; stroke-linecap: square"/>
   </g>
   <g id="line2d_59">
    <path d="M 55.139403 136.407848 
L 108.225139 144.974377 
L 161.310876 155.784522 
L 214.396613 149.053677 
L 320.568086 150.685397 
" clip-path="url(#p9f7ccc1c61)" style="fill: none; stroke: #c7c7c7; stroke-opacity: 0.75; stroke-width: 0.7; stroke-linecap: square"/>
   </g>
   <g id="line2d_60">
    <path d="M 55.139403 42.583954 
L 108.225139 47.275149 
L 161.310876 50.742554 
L 214.396613 56.657539 
L 320.568086 68.079578 
" clip-path="url(#p9f7ccc1c61)" style="fill: none; stroke: #c7c7c7; stroke-opacity: 0.75; stroke-width: 0.7; stroke-linecap: square"/>
   </g>
   <g id="line2d_61">
    <path d="M 55.139403 95.614851 
L 108.225139 91.943481 
L 161.310876 98.674326 
L 214.396613 106.832925 
L 320.568086 112.74791 
" clip-path="url(#p9f7ccc1c61)" style="fill: none; stroke: #c7c7c7; stroke-opacity: 0.75; stroke-width: 0.7; stroke-linecap: square"/>
   </g>
   <g id="line2d_62">
    <path d="M 55.139403 40.544305 
L 108.225139 41.768095 
L 161.310876 51.354449 
L 214.396613 62.368558 
L 320.568086 78.481792 
" clip-path="url(#p9f7ccc1c61)" style="fill: none; stroke: #c7c7c7; stroke-opacity: 0.75; stroke-width: 0.7; stroke-linecap: square"/>
   </g>
   <g id="line2d_63">
    <path d="M 55.139403 142.526798 
L 108.225139 130.696828 
L 161.310876 135.795953 
L 214.396613 122.946159 
L 320.568086 118.866859 
" clip-path="url(#p9f7ccc1c61)" style="fill: none; stroke: #c7c7c7; stroke-opacity: 0.75; stroke-width: 0.7; stroke-linecap: square"/>
   </g>
   <g id="line2d_64">
    <path d="M 55.139403 130.288898 
L 108.225139 131.104758 
L 161.310876 144.770412 
L 214.396613 135.388023 
L 320.568086 136.815778 
" clip-path="url(#p9f7ccc1c61)" style="fill: none; stroke: #c7c7c7; stroke-opacity: 0.75; stroke-width: 0.7; stroke-linecap: square"/>
   </g>
   <g id="line2d_65">
    <path d="M 55.139403 113.9717 
L 108.225139 118.050999 
L 161.310876 130.492863 
L 214.396613 132.940443 
L 320.568086 148.645747 
" clip-path="url(#p9f7ccc1c61)" style="fill: none; stroke: #c7c7c7; stroke-opacity: 0.75; stroke-width: 0.7; stroke-linecap: square"/>
   </g>
   <g id="line2d_66">
    <path d="M 55.139403 113.9717 
L 108.225139 127.025459 
L 161.310876 143.750588 
L 214.396613 141.710938 
L 320.568086 149.461607 
" clip-path="url(#p9f7ccc1c61)" style="fill: none; stroke: #c7c7c7; stroke-opacity: 0.75; stroke-width: 0.7; stroke-linecap: square"/>
   </g>
   <g id="line2d_67">
    <path d="M 55.139403 126.209599 
L 108.225139 127.637354 
L 161.310876 130.492863 
L 214.396613 120.906509 
L 320.568086 134.164233 
" clip-path="url(#p9f7ccc1c61)" style="fill: none; stroke: #c7c7c7; stroke-opacity: 0.75; stroke-width: 0.7; stroke-linecap: square"/>
   </g>
   <g id="line2d_68">
    <path d="M 55.139403 107.85275 
L 108.225139 114.175665 
L 161.310876 119.070824 
L 214.396613 119.682719 
L 320.568086 124.781844 
" clip-path="url(#p9f7ccc1c61)" style="fill: none; stroke: #c7c7c7; stroke-opacity: 0.75; stroke-width: 0.7; stroke-linecap: square"/>
   </g>
   <g id="line2d_69">
    <path d="M 55.139403 118.050999 
L 108.225139 124.781844 
L 161.310876 133.960268 
L 214.396613 130.084933 
L 320.568086 135.591988 
" clip-path="url(#p9f7ccc1c61)" style="fill: none; stroke: #c7c7c7; stroke-opacity: 0.75; stroke-width: 0.7; stroke-linecap: square"/>
   </g>
   <g id="line2d_70">
    <path d="M 55.139403 40.544305 
L 108.225139 47.275149 
L 161.310876 60.940803 
L 214.396613 65.835963 
L 320.568086 84.192812 
" clip-path="url(#p9f7ccc1c61)" style="fill: none; stroke: #c7c7c7; stroke-opacity: 0.75; stroke-width: 0.7; stroke-linecap: square"/>
   </g>
   <g id="line2d_71">
    <path d="M 55.139403 60.940803 
L 108.225139 73.586632 
L 161.310876 99.286221 
L 214.396613 100.91794 
L 320.568086 118.050999 
" clip-path="url(#p9f7ccc1c61)" style="fill: none; stroke: #c7c7c7; stroke-opacity: 0.75; stroke-width: 0.7; stroke-linecap: square"/>
   </g>
   <g id="line2d_72">
    <path d="M 55.139403 36.465005 
L 108.225139 43.807744 
L 161.310876 50.334624 
L 214.396613 56.249609 
L 320.568086 66.855788 
" clip-path="url(#p9f7ccc1c61)" style="fill: none; stroke: #c7c7c7; stroke-opacity: 0.75; stroke-width: 0.7; stroke-linecap: square"/>
   </g>
   <g id="line2d_73">
    <path d="M 55.139403 146.606097 
L 108.225139 148.033852 
L 161.310876 151.909187 
L 214.396613 153.132977 
L 320.568086 162.515366 
" clip-path="url(#p9f7ccc1c61)" style="fill: none; stroke: #c7c7c7; stroke-opacity: 0.75; stroke-width: 0.7; stroke-linecap: square"/>
   </g>
   <g id="line2d_74">
    <path d="M 55.139403 140.487148 
L 108.225139 130.288898 
L 161.310876 125.801669 
L 214.396613 127.637354 
L 320.568086 122.334264 
" clip-path="url(#p9f7ccc1c61)" style="fill: none; stroke: #c7c7c7; stroke-opacity: 0.75; stroke-width: 0.7; stroke-linecap: square"/>
   </g>
   <g id="line2d_75">
    <path d="M 55.139403 75.218352 
L 108.225139 87.660216 
L 161.310876 102.14173 
L 214.396613 97.246571 
L 320.568086 124.985809 
" clip-path="url(#p9f7ccc1c61)" style="fill: none; stroke: #c7c7c7; stroke-opacity: 0.75; stroke-width: 0.7; stroke-linecap: square"/>
   </g>
   <g id="line2d_76">
    <path d="M 55.139403 93.575201 
L 108.225139 105.8131 
L 161.310876 111.728085 
L 214.396613 113.767735 
L 320.568086 117.847034 
" clip-path="url(#p9f7ccc1c61)" style="fill: none; stroke: #c7c7c7; stroke-opacity: 0.75; stroke-width: 0.7; stroke-linecap: square"/>
   </g>
   <g id="line2d_77">
    <path d="M 55.139403 160.883646 
L 108.225139 184.33962 
L 161.310876 180.464285 
L 214.396613 180.66825 
L 320.568086 189.030814 
" clip-path="url(#p9f7ccc1c61)" style="fill: none; stroke: #c7c7c7; stroke-opacity: 0.75; stroke-width: 0.7; stroke-linecap: square"/>
   </g>
   <g id="line2d_78">
    <path d="M 55.139403 162.923296 
L 108.225139 169.858106 
L 161.310876 175.569125 
L 214.396613 175.161195 
L 320.568086 170.877931 
" clip-path="url(#p9f7ccc1c61)" style="fill: none; stroke: #c7c7c7; stroke-opacity: 0.75; stroke-width: 0.7; stroke-linecap: square"/>
   </g>
   <g id="line2d_79">
    <path d="M 55.139403 122.130299 
L 108.225139 132.532513 
L 161.310876 132.736478 
L 214.396613 126.209599 
L 320.568086 113.359805 
" clip-path="url(#p9f7ccc1c61)" style="fill: none; stroke: #c7c7c7; stroke-opacity: 0.75; stroke-width: 0.7; stroke-linecap: square"/>
   </g>
   <g id="line2d_80">
    <path d="M 55.139403 103.77345 
L 108.225139 118.866859 
L 161.310876 121.314439 
L 214.396613 123.354089 
L 320.568086 122.946159 
" clip-path="url(#p9f7ccc1c61)" style="fill: none; stroke: #c7c7c7; stroke-opacity: 0.75; stroke-width: 0.7; stroke-linecap: square"/>
   </g>
   <g id="line2d_81">
    <path d="M 55.139403 60.940803 
L 108.225139 63.184418 
L 161.310876 69.507333 
L 214.396613 83.784882 
L 320.568086 112.33998 
" clip-path="url(#p9f7ccc1c61)" style="fill: none; stroke: #c7c7c7; stroke-opacity: 0.75; stroke-width: 0.7; stroke-linecap: square"/>
   </g>
   <g id="line2d_82">
    <path d="M 55.139403 79.297652 
L 108.225139 90.719691 
L 161.310876 98.062431 
L 214.396613 103.977415 
L 320.568086 115.603419 
" clip-path="url(#p9f7ccc1c61)" style="fill: none; stroke: #c7c7c7; stroke-opacity: 0.75; stroke-width: 0.7; stroke-linecap: square"/>
   </g>
   <g id="line2d_83">
    <path d="M 55.139403 116.011349 
L 108.225139 122.538229 
L 161.310876 134.164233 
L 214.396613 133.144408 
L 320.568086 154.764697 
" clip-path="url(#p9f7ccc1c61)" style="fill: none; stroke: #c7c7c7; stroke-opacity: 0.75; stroke-width: 0.7; stroke-linecap: square"/>
   </g>
   <g id="line2d_84">
    <path d="M 55.139403 97.654501 
L 108.225139 103.77345 
L 161.310876 115.603419 
L 214.396613 120.906509 
L 320.568086 116.215314 
" clip-path="url(#p9f7ccc1c61)" style="fill: none; stroke: #c7c7c7; stroke-opacity: 0.75; stroke-width: 0.7; stroke-linecap: square"/>
   </g>
   <g id="line2d_85">
    <path d="M 55.139403 44.623604 
L 108.225139 51.762379 
L 161.310876 68.283543 
L 214.396613 68.895438 
L 320.568086 93.371236 
" clip-path="url(#p9f7ccc1c61)" style="fill: none; stroke: #c7c7c7; stroke-opacity: 0.75; stroke-width: 0.7; stroke-linecap: square"/>
   </g>
   <g id="line2d_86">
    <path d="M 55.139403 71.139053 
L 108.225139 83.580917 
L 161.310876 101.937765 
L 214.396613 107.648785 
L 320.568086 145.178342 
" clip-path="url(#p9f7ccc1c61)" style="fill: none; stroke: #c7c7c7; stroke-opacity: 0.75; stroke-width: 0.7; stroke-linecap: square"/>
   </g>
   <g id="line2d_87">
    <path d="M 55.139403 150.685397 
L 108.225139 145.586272 
L 161.310876 141.303008 
L 214.396613 141.914903 
L 320.568086 133.960268 
" clip-path="url(#p9f7ccc1c61)" style="fill: none; stroke: #c7c7c7; stroke-opacity: 0.75; stroke-width: 0.7; stroke-linecap: square"/>
   </g>
   <g id="line2d_88">
    <path d="M 55.139403 138.447498 
L 108.225139 145.586272 
L 161.310876 152.430431 
L 214.396613 153.56357 
L 320.568086 156.373754 
" clip-path="url(#p9f7ccc1c61)" style="fill: none; stroke: #c7c7c7; stroke-opacity: 0.75; stroke-width: 0.7; stroke-linecap: square"/>
   </g>
   <g id="line2d_89">
    <path d="M 55.139403 93.575201 
L 108.225139 102.345695 
L 161.310876 108.872575 
L 214.396613 114.991524 
L 320.568086 119.274789 
" clip-path="url(#p9f7ccc1c61)" style="fill: none; stroke: #c7c7c7; stroke-opacity: 0.75; stroke-width: 0.7; stroke-linecap: square"/>
   </g>
   <g id="line2d_90">
    <path d="M 55.139403 116.011349 
L 108.225139 109.688435 
L 161.310876 120.498579 
L 214.396613 123.150124 
L 320.568086 118.050999 
" clip-path="url(#p9f7ccc1c61)" style="fill: none; stroke: #c7c7c7; stroke-opacity: 0.75; stroke-width: 0.7; stroke-linecap: square"/>
   </g>
   <g id="line2d_91">
    <path d="M 55.139403 118.050999 
L 108.225139 140.079218 
L 161.310876 145.178342 
L 214.396613 146.402132 
L 320.568086 150.481432 
" clip-path="url(#p9f7ccc1c61)" style="fill: none; stroke: #c7c7c7; stroke-opacity: 0.75; stroke-width: 0.7; stroke-linecap: square"/>
   </g>
   <g id="line2d_92">
    <path d="M 55.139403 89.722529 
L 108.225139 99.694151 
L 161.310876 105.382507 
L 214.396613 112.000038 
L 320.568086 122.674206 
" clip-path="url(#p9f7ccc1c61)" style="fill: none; stroke: #c7c7c7; stroke-opacity: 0.75; stroke-width: 0.7; stroke-linecap: square"/>
   </g>
   <g id="line2d_93">
    <path d="M 55.139403 46.663254 
L 108.225139 61.960628 
L 161.310876 80.113512 
L 214.396613 81.745232 
L 320.568086 86.232461 
" clip-path="url(#p9f7ccc1c61)" style="fill: none; stroke: #c7c7c7; stroke-opacity: 0.75; stroke-width: 0.7; stroke-linecap: square"/>
   </g>
   <g id="line2d_94">
    <path d="M 55.139403 38.504655 
L 108.225139 59.513048 
L 161.310876 80.725407 
L 214.396613 83.988847 
L 320.568086 96.838641 
" clip-path="url(#p9f7ccc1c61)" style="fill: none; stroke: #c7c7c7; stroke-opacity: 0.75; stroke-width: 0.7; stroke-linecap: square"/>
   </g>
   <g id="line2d_95">
    <path d="M 55.139403 146.606097 
L 108.225139 150.481432 
L 161.310876 145.790237 
L 214.396613 148.441782 
L 320.568086 140.487148 
" clip-path="url(#p9f7ccc1c61)" style="fill: none; stroke: #c7c7c7; stroke-opacity: 0.75; stroke-width: 0.7; stroke-linecap: square"/>
   </g>
   <g id="line2d_96">
    <path d="M 55.139403 58.901153 
L 108.225139 70.323193 
L 161.310876 76.850072 
L 214.396613 88.272111 
L 320.568086 101.121905 
" clip-path="url(#p9f7ccc1c61)" style="fill: none; stroke: #c7c7c7; stroke-opacity: 0.75; stroke-width: 0.7; stroke-linecap: square"/>
   </g>
   <g id="line2d_97">
    <path d="M 55.139403 79.297652 
L 108.225139 84.192812 
L 161.310876 89.291936 
L 214.396613 94.391061 
L 320.568086 94.187096 
" clip-path="url(#p9f7ccc1c61)" style="fill: none; stroke: #c7c7c7; stroke-opacity: 0.75; stroke-width: 0.7; stroke-linecap: square"/>
   </g>
   <g id="line2d_98">
    <path d="M 55.139403 148.645747 
L 108.225139 145.178342 
L 161.310876 149.461607 
L 214.396613 148.033852 
L 320.568086 154.152802 
" clip-path="url(#p9f7ccc1c61)" style="fill: none; stroke: #c7c7c7; stroke-opacity: 0.75; stroke-width: 0.7; stroke-linecap: square"/>
   </g>
   <g id="line2d_99">
    <path d="M 55.139403 120.090649 
L 108.225139 122.130299 
L 161.310876 121.518404 
L 214.396613 119.478754 
L 320.568086 118.866859 
" clip-path="url(#p9f7ccc1c61)" style="fill: none; stroke: #c7c7c7; stroke-opacity: 0.75; stroke-width: 0.7; stroke-linecap: square"/>
   </g>
   <g id="line2d_100">
    <path d="M 55.139403 124.679861 
L 108.225139 129.52403 
L 161.310876 131.988607 
L 214.396613 127.399394 
L 320.568086 127.824322 
" clip-path="url(#p9f7ccc1c61)" style="fill: none; stroke: #c7c7c7; stroke-opacity: 0.75; stroke-width: 0.7; stroke-linecap: square"/>
   </g>
   <g id="line2d_101">
    <path d="M 55.139403 173.121545 
L 108.225139 170.062071 
L 161.310876 167.614491 
L 214.396613 171.489826 
L 320.568086 165.574841 
" clip-path="url(#p9f7ccc1c61)" style="fill: none; stroke: #c7c7c7; stroke-opacity: 0.75; stroke-width: 0.7; stroke-linecap: square"/>
   </g>
   <g id="line2d_102">
    <path d="M 55.139403 79.297652 
L 108.225139 81.337302 
L 161.310876 87.048321 
L 214.396613 86.844356 
L 320.568086 101.32587 
" clip-path="url(#p9f7ccc1c61)" style="fill: none; stroke: #c7c7c7; stroke-opacity: 0.75; stroke-width: 0.7; stroke-linecap: square"/>
   </g>
   <g id="line2d_103">
    <path d="M 55.139403 99.694151 
L 108.225139 104.99724 
L 161.310876 118.662894 
L 214.396613 124.577879 
L 320.568086 142.526798 
" clip-path="url(#p9f7ccc1c61)" style="fill: none; stroke: #c7c7c7; stroke-opacity: 0.75; stroke-width: 0.7; stroke-linecap: square"/>
   </g>
   <g id="line2d_104">
    <path d="M 55.139403 119.580737 
L 108.225139 141.252016 
L 161.310876 147.676913 
L 214.396613 157.212277 
L 320.568086 164.045104 
" clip-path="url(#p9f7ccc1c61)" style="fill: none; stroke: #c7c7c7; stroke-opacity: 0.75; stroke-width: 0.7; stroke-linecap: square"/>
   </g>
   <g id="line2d_105">
    <path d="M 55.139403 56.861504 
L 108.225139 83.172987 
L 161.310876 98.470361 
L 214.396613 111.320155 
L 320.568086 122.538229 
" clip-path="url(#p9f7ccc1c61)" style="fill: none; stroke: #c7c7c7; stroke-opacity: 0.75; stroke-width: 0.7; stroke-linecap: square"/>
   </g>
   <g id="line2d_106">
    <path d="M 55.139403 150.685397 
L 108.225139 157.212277 
L 161.310876 144.158517 
L 214.396613 145.790237 
L 320.568086 138.243533 
" clip-path="url(#p9f7ccc1c61)" style="fill: none; stroke: #c7c7c7; stroke-opacity: 0.75; stroke-width: 0.7; stroke-linecap: square"/>
   </g>
   <g id="line2d_107">
    <path d="M 55.139403 107.85275 
L 108.225139 118.254964 
L 161.310876 126.617529 
L 214.396613 129.880968 
L 320.568086 153.336942 
" clip-path="url(#p9f7ccc1c61)" style="fill: none; stroke: #c7c7c7; stroke-opacity: 0.75; stroke-width: 0.7; stroke-linecap: square"/>
   </g>
   <g id="line2d_108">
    <path d="M 55.139403 44.623604 
L 108.225139 54.821854 
L 161.310876 70.323193 
L 214.396613 72.974737 
L 320.568086 83.172987 
" clip-path="url(#p9f7ccc1c61)" style="fill: none; stroke: #c7c7c7; stroke-opacity: 0.75; stroke-width: 0.7; stroke-linecap: square"/>
   </g>
   <g id="line2d_109">
    <path d="M 55.139403 156.804347 
L 108.225139 153.336942 
L 161.310876 149.869537 
L 214.396613 148.645747 
L 320.568086 138.447498 
" clip-path="url(#p9f7ccc1c61)" style="fill: none; stroke: #c7c7c7; stroke-opacity: 0.75; stroke-width: 0.7; stroke-linecap: square"/>
   </g>
   <g id="matplotlib.axis_1">
    <g id="xtick_1">
     <g id="line2d_110">
      <defs>
       <path id="m3dab12fd96" d="M 0 0 
L 0 3.5 
" style="stroke: #222222; stroke-width: 0.8"/>
      </defs>
      <g>
       <use xlink:href="#m3dab12fd96" x="55.139403" y="234.311041" style="fill: #222222; stroke: #222222; stroke-width: 0.8"/>
      </g>
     </g>
     <g id="text_1">
      <text style="font-size: 8.5px; font-family: 'DejaVu Sans'; text-anchor: middle; fill: #222222" x="55.139403" y="247.769713" transform="rotate(-0 55.139403 247.769713)">0.0</text>
     </g>
    </g>
    <g id="xtick_2">
     <g id="line2d_111">
      <g>
       <use xlink:href="#m3dab12fd96" x="108.225139" y="234.311041" style="fill: #222222; stroke: #222222; stroke-width: 0.8"/>
      </g>
     </g>
     <g id="text_2">
      <text style="font-size: 8.5px; font-family: 'DejaVu Sans'; text-anchor: middle; fill: #222222" x="108.225139" y="247.769713" transform="rotate(-0 108.225139 247.769713)">0.1</text>
     </g>
    </g>
    <g id="xtick_3">
     <g id="line2d_112">
      <g>
       <use xlink:href="#m3dab12fd96" x="161.310876" y="234.311041" style="fill: #222222; stroke: #222222; stroke-width: 0.8"/>
      </g>
     </g>
     <g id="text_3">
      <text style="font-size: 8.5px; font-family: 'DejaVu Sans'; text-anchor: middle; fill: #222222" x="161.310876" y="247.769713" transform="rotate(-0 161.310876 247.769713)">0.2</text>
     </g>
    </g>
    <g id="xtick_4">
     <g id="line2d_113">
      <g>
       <use xlink:href="#m3dab12fd96" x="214.396613" y="234.311041" style="fill: #222222; stroke: #222222; stroke-width: 0.8"/>
      </g>
     </g>
     <g id="text_4">
      <text style="font-size: 8.5px; font-family: 'DejaVu Sans'; text-anchor: middle; fill: #222222" x="214.396613" y="247.769713" transform="rotate(-0 214.396613 247.769713)">0.3</text>
     </g>
    </g>
    <g id="xtick_5">
     <g id="line2d_114">
      <g>
       <use xlink:href="#m3dab12fd96" x="320.568086" y="234.311041" style="fill: #222222; stroke: #222222; stroke-width: 0.8"/>
      </g>
     </g>
     <g id="text_5">
      <text style="font-size: 8.5px; font-family: 'DejaVu Sans'; text-anchor: middle; fill: #222222" x="320.568086" y="247.769713" transform="rotate(-0 320.568086 247.769713)">0.5</text>
     </g>
    </g>
    <g id="text_6">
     <text style="font-size: 9px; font-family: 'DejaVu Sans'; text-anchor: middle" x="187.853744" y="260.376041" transform="rotate(-0 187.853744 260.376041)">Fraction of channels dropped</text>
    </g>
   </g>
   <g id="matplotlib.axis_2">
    <g id="ytick_1">
     <g id="line2d_115">
      <path d="M 41.867969 234.311041 
L 333.83952 234.311041 
" clip-path="url(#p9f7ccc1c61)" style="fill: none; stroke: #dddddd; stroke-width: 0.5; stroke-linecap: square"/>
     </g>
     <g id="line2d_116">
      <defs>
       <path id="m1a9d661687" d="M 0 0 
L -3.5 0 
" style="stroke: #222222; stroke-width: 0.8"/>
      </defs>
      <g>
       <use xlink:href="#m1a9d661687" x="41.867969" y="234.311041" style="fill: #222222; stroke: #222222; stroke-width: 0.8"/>
      </g>
     </g>
     <g id="text_7">
      <text style="font-size: 8.5px; font-family: 'DejaVu Sans'; text-anchor: end; fill: #222222" x="34.867969" y="237.540377" transform="rotate(-0 34.867969 237.540377)">0.0</text>
     </g>
    </g>
    <g id="ytick_2">
     <g id="line2d_117">
      <path d="M 41.867969 193.518044 
L 333.83952 193.518044 
" clip-path="url(#p9f7ccc1c61)" style="fill: none; stroke: #dddddd; stroke-width: 0.5; stroke-linecap: square"/>
     </g>
     <g id="line2d_118">
      <g>
       <use xlink:href="#m1a9d661687" x="41.867969" y="193.518044" style="fill: #222222; stroke: #222222; stroke-width: 0.8"/>
      </g>
     </g>
     <g id="text_8">
      <text style="font-size: 8.5px; font-family: 'DejaVu Sans'; text-anchor: end; fill: #222222" x="34.867969" y="196.74738" transform="rotate(-0 34.867969 196.74738)">0.2</text>
     </g>
    </g>
    <g id="ytick_3">
     <g id="line2d_119">
      <path d="M 41.867969 152.725047 
L 333.83952 152.725047 
" clip-path="url(#p9f7ccc1c61)" style="fill: none; stroke: #dddddd; stroke-width: 0.5; stroke-linecap: square"/>
     </g>
     <g id="line2d_120">
      <g>
       <use xlink:href="#m1a9d661687" x="41.867969" y="152.725047" style="fill: #222222; stroke: #222222; stroke-width: 0.8"/>
      </g>
     </g>
     <g id="text_9">
      <text style="font-size: 8.5px; font-family: 'DejaVu Sans'; text-anchor: end; fill: #222222" x="34.867969" y="155.954383" transform="rotate(-0 34.867969 155.954383)">0.4</text>
     </g>
    </g>
    <g id="ytick_4">
     <g id="line2d_121">
      <path d="M 41.867969 111.93205 
L 333.83952 111.93205 
" clip-path="url(#p9f7ccc1c61)" style="fill: none; stroke: #dddddd; stroke-width: 0.5; stroke-linecap: square"/>
     </g>
     <g id="line2d_122">
      <g>
       <use xlink:href="#m1a9d661687" x="41.867969" y="111.93205" style="fill: #222222; stroke: #222222; stroke-width: 0.8"/>
      </g>
     </g>
     <g id="text_10">
      <text style="font-size: 8.5px; font-family: 'DejaVu Sans'; text-anchor: end; fill: #222222" x="34.867969" y="115.161386" transform="rotate(-0 34.867969 115.161386)">0.6</text>
     </g>
    </g>
    <g id="ytick_5">
     <g id="line2d_123">
      <path d="M 41.867969 71.139053 
L 333.83952 71.139053 
" clip-path="url(#p9f7ccc1c61)" style="fill: none; stroke: #dddddd; stroke-width: 0.5; stroke-linecap: square"/>
     </g>
     <g id="line2d_124">
      <g>
       <use xlink:href="#m1a9d661687" x="41.867969" y="71.139053" style="fill: #222222; stroke: #222222; stroke-width: 0.8"/>
      </g>
     </g>
     <g id="text_11">
      <text style="font-size: 8.5px; font-family: 'DejaVu Sans'; text-anchor: end; fill: #222222" x="34.867969" y="74.368388" transform="rotate(-0 34.867969 74.368388)">0.8</text>
     </g>
    </g>
    <g id="ytick_6">
     <g id="line2d_125">
      <path d="M 41.867969 30.346055 
L 333.83952 30.346055 
" clip-path="url(#p9f7ccc1c61)" style="fill: none; stroke: #dddddd; stroke-width: 0.5; stroke-linecap: square"/>
     </g>
     <g id="line2d_126">
      <g>
       <use xlink:href="#m1a9d661687" x="41.867969" y="30.346055" style="fill: #222222; stroke: #222222; stroke-width: 0.8"/>
      </g>
     </g>
     <g id="text_12">
      <text style="font-size: 8.5px; font-family: 'DejaVu Sans'; text-anchor: end; fill: #222222" x="34.867969" y="33.575391" transform="rotate(-0 34.867969 33.575391)">1.0</text>
     </g>
    </g>
    <g id="text_13">
     <text style="font-size: 9px; font-family: 'DejaVu Sans'; text-anchor: middle" x="15.478594" y="130.288898" transform="rotate(-90 15.478594 130.288898)">ROC AUC</text>
    </g>
   </g>
   <g id="LineCollection_1">
    <path d="M 55.139403 103.948894 
L 55.139403 89.156205 
" clip-path="url(#p9f7ccc1c61)" style="fill: none; stroke: #1f5a7a; stroke-width: 1.5"/>
    <path d="M 108.225139 110.901262 
L 108.225139 96.776626 
" clip-path="url(#p9f7ccc1c61)" style="fill: none; stroke: #1f5a7a; stroke-width: 1.5"/>
    <path d="M 161.310876 117.609618 
L 161.310876 104.634093 
" clip-path="url(#p9f7ccc1c61)" style="fill: none; stroke: #1f5a7a; stroke-width: 1.5"/>
    <path d="M 214.396613 119.141377 
L 214.396613 107.014158 
" clip-path="url(#p9f7ccc1c61)" style="fill: none; stroke: #1f5a7a; stroke-width: 1.5"/>
    <path d="M 320.568086 126.404333 
L 320.568086 116.063515 
" clip-path="url(#p9f7ccc1c61)" style="fill: none; stroke: #1f5a7a; stroke-width: 1.5"/>
   </g>
   <g id="line2d_127">
    <defs>
     <path id="m994f488f9e" d="M 2.5 0 
L -2.5 -0 
" style="stroke: #1f5a7a"/>
    </defs>
    <g clip-path="url(#p9f7ccc1c61)">
     <use xlink:href="#m994f488f9e" x="55.139403" y="103.948894" style="fill: #1f5a7a; stroke: #1f5a7a"/>
     <use xlink:href="#m994f488f9e" x="108.225139" y="110.901262" style="fill: #1f5a7a; stroke: #1f5a7a"/>
     <use xlink:href="#m994f488f9e" x="161.310876" y="117.609618" style="fill: #1f5a7a; stroke: #1f5a7a"/>
     <use xlink:href="#m994f488f9e" x="214.396613" y="119.141377" style="fill: #1f5a7a; stroke: #1f5a7a"/>
     <use xlink:href="#m994f488f9e" x="320.568086" y="126.404333" style="fill: #1f5a7a; stroke: #1f5a7a"/>
    </g>
   </g>
   <g id="line2d_128">
    <g clip-path="url(#p9f7ccc1c61)">
     <use xlink:href="#m994f488f9e" x="55.139403" y="89.156205" style="fill: #1f5a7a; stroke: #1f5a7a"/>
     <use xlink:href="#m994f488f9e" x="108.225139" y="96.776626" style="fill: #1f5a7a; stroke: #1f5a7a"/>
     <use xlink:href="#m994f488f9e" x="161.310876" y="104.634093" style="fill: #1f5a7a; stroke: #1f5a7a"/>
     <use xlink:href="#m994f488f9e" x="214.396613" y="107.014158" style="fill: #1f5a7a; stroke: #1f5a7a"/>
     <use xlink:href="#m994f488f9e" x="320.568086" y="116.063515" style="fill: #1f5a7a; stroke: #1f5a7a"/>
    </g>
   </g>
   <g id="line2d_129">
    <path d="M 55.139403 96.552549 
L 108.225139 103.838944 
L 161.310876 111.121855 
L 214.396613 113.077767 
L 320.568086 121.233924 
" clip-path="url(#p9f7ccc1c61)" style="fill: none; stroke: #1f5a7a; stroke-width: 1.5; stroke-linecap: square"/>
    <defs>
     <path id="mb7b5896930" d="M 0 2 
C 0.530406 2 1.03916 1.789267 1.414214 1.414214 
C 1.789267 1.03916 2 0.530406 2 0 
C 2 -0.530406 1.789267 -1.03916 1.414214 -1.414214 
C 1.03916 -1.789267 0.530406 -2 0 -2 
C -0.530406 -2 -1.03916 -1.789267 -1.414214 -1.414214 
C -1.789267 -1.03916 -2 -0.530406 -2 0 
C -2 0.530406 -1.789267 1.03916 -1.414214 1.414214 
C -1.03916 1.789267 -0.530406 2 0 2 
z
" style="stroke: #1f5a7a"/>
    </defs>
    <g clip-path="url(#p9f7ccc1c61)">
     <use xlink:href="#mb7b5896930" x="55.139403" y="96.552549" style="fill: #1f5a7a; stroke: #1f5a7a"/>
     <use xlink:href="#mb7b5896930" x="108.225139" y="103.838944" style="fill: #1f5a7a; stroke: #1f5a7a"/>
     <use xlink:href="#mb7b5896930" x="161.310876" y="111.121855" style="fill: #1f5a7a; stroke: #1f5a7a"/>
     <use xlink:href="#mb7b5896930" x="214.396613" y="113.077767" style="fill: #1f5a7a; stroke: #1f5a7a"/>
     <use xlink:href="#mb7b5896930" x="320.568086" y="121.233924" style="fill: #1f5a7a; stroke: #1f5a7a"/>
    </g>
   </g>
   <g id="patch_3">
    <path d="M 41.867969 234.311041 
L 41.867969 26.266756 
" style="fill: none; stroke: #222222; stroke-width: 0.8; stroke-linejoin: miter; stroke-linecap: square"/>
   </g>
   <g id="patch_4">
    <path d="M 41.867969 234.311041 
L 333.83952 234.311041 
" style="fill: none; stroke: #222222; stroke-width: 0.8; stroke-linejoin: miter; stroke-linecap: square"/>
   </g>
   <g id="text_14">
    <text style="font-size: 9.5px; font-family: 'DejaVu Sans'; text-anchor: start; fill: #222222" x="41.867969" y="16.266756" transform="rotate(-0 41.867969 16.266756)">Channel dropout: 109 paired subjects</text>
   </g>
   <g id="legend_1">
    <g id="LineCollection_2">
     <path d="M 56.117969 227.126276 
L 56.117969 219.626276 
" style="fill: none; stroke: #1f5a7a; stroke-width: 1.5"/>
    </g>
    <g id="line2d_130">
     <g>
      <use xlink:href="#m994f488f9e" x="56.117969" y="227.126276" style="fill: #1f5a7a; stroke: #1f5a7a"/>
     </g>
    </g>
    <g id="line2d_131">
     <g>
      <use xlink:href="#m994f488f9e" x="56.117969" y="219.626276" style="fill: #1f5a7a; stroke: #1f5a7a"/>
     </g>
    </g>
    <g id="line2d_132">
     <path d="M 48.617969 223.376276 
L 63.617969 223.376276 
" style="fill: none; stroke: #1f5a7a; stroke-width: 1.5; stroke-linecap: square"/>
    </g>
    <g id="line2d_133">
     <g>
      <use xlink:href="#mb7b5896930" x="56.117969" y="223.376276" style="fill: #1f5a7a; stroke: #1f5a7a"/>
     </g>
    </g>
    <g id="text_15">
     <text style="font-size: 7.5px; font-family: 'DejaVu Sans'; text-anchor: start; fill: #222222" x="69.617969" y="226.001276" transform="rotate(-0 69.617969 226.001276)">Mean and 95% CI</text>
    </g>
   </g>
  </g>
  <g id="text_16">
   <text style="font-weight: 700; font-size: 11px; font-family: 'DejaVu Sans'; text-anchor: start; fill: #222222" x="8.95176" y="16.998281" transform="rotate(-0 8.95176 16.998281)">B</text>
  </g>
 </g>
 <defs>
  <clipPath id="p9f7ccc1c61">
   <rect x="41.867969" y="26.266756" width="291.971551" height="208.044286"/>
  </clipPath>
 </defs>
</svg>
