<?xml version="1.0" encoding="utf-8" standalone="no"?>
<!DOCTYPE svg PUBLIC "-//W3C//DTD SVG 1.1//EN"
  "http://www.w3.org/Graphics/SVG/1.1/DTD/svg11.dtd">
<svg xmlns:xlink="http://www.w3.org/1999/xlink" width="342.47952pt" height="270.88776pt" viewBox="0 0 342.47952 270.88776" xmlns="http://www.w3.org/2000/svg" version="1.1">
 <metadata>
  <rdf:RDF xmlns:dc="http://purl.org/dc/elements/1.1/" xmlns:cc="http://creativecommons.org/ns#" xmlns:rdf="http://www.w3.org/1999/02/22-rdf-syntax-ns#">
   <cc:Work>
    <dc:type rdf:resource="http://purl.org/dc/dcmitype/StillImage"/>
    <dc:date>2026-07-17T15:18:37.018975</dc:date>
    <dc:format>image/svg+xml</dc:format>
    <dc:creator>
     <cc:Agent>
      <dc:title>Matplotlib v3.11.0, https://matplotlib.org/</dc:title>
     </cc:Agent>
    </dc:creator>
   </cc:Work>
  </rdf:RDF>
 </metadata>
 <defs>
  <style type="text/css">*{stroke-linejoin: round; stroke-linecap: butt}</style>
 </defs>
 <g id="figure_1">
  <g id="patch_1">
   <path d="M 0 270.88776 
L 342.47952 270.88776 
L 342.47952 0 
L 0 0 
z
" style="fill: #ffffff"/>
  </g>
  <g id="axes_1">
   <g id="patch_2">
    <path d="M 42.157656 233.747057 
L 333.83952 233.747057 
L 333.83952 26.266756 
L 42.157656 26.266756 
z
" style="fill: #ffffff"/>
   </g>
   <g id="line2d_1">
    <path d="M 55.415923 46.607962 
L 108.448989 56.575153 
L 161.482055 68.16964 
L 214.515121 80.374364 
L 320.581253 92.985911 
" clip-path="url(#pe62fa5dada)" style="fill: none; stroke: #c7c7c7; stroke-opacity: 0.75; stroke-width: 0.7; stroke-linecap: square"/>
   </g>
   <g id="line2d_2">
    <path d="M 55.415923 44.573841 
L 108.448989 56.778565 
L 161.482055 66.135519 
L 214.515121 74.272002 
L 320.581253 100.105333 
" clip-path="url(#pe62fa5dada)" style="fill: none; stroke: #c7c7c7; stroke-opacity: 0.75; stroke-width: 0.7; stroke-linecap: square"/>
   </g>
   <g id="line2d_3">
    <path d="M 55.415923 113.733941 
L 108.448989 121.667012 
L 161.482055 125.938665 
L 214.515121 131.837615 
L 320.581253 139.363861 
" clip-path="url(#pe62fa5dada)" style="fill: none; stroke: #c7c7c7; stroke-opacity: 0.75; stroke-width: 0.7; stroke-linecap: square"/>
   </g>
   <g id="line2d_4">
    <path d="M 55.415923 68.983288 
L 108.448989 78.747067 
L 161.482055 86.88355 
L 214.515121 90.341555 
L 320.581253 109.462288 
" clip-path="url(#pe62fa5dada)" style="fill: none; stroke: #c7c7c7; stroke-opacity: 0.75; stroke-width: 0.7; stroke-linecap: square"/>
   </g>
   <g id="line2d_5">
    <path d="M 55.415923 152.382233 
L 108.448989 155.636826 
L 161.482055 154.619766 
L 214.515121 149.534464 
L 320.581253 145.669635 
" clip-path="url(#pe62fa5dada)" style="fill: none; stroke: #c7c7c7; stroke-opacity: 0.75; stroke-width: 0.7; stroke-linecap: square"/>
   </g>
   <g id="line2d_6">
    <path d="M 55.415923 105.597459 
L 108.448989 125.938665 
L 161.482055 133.871735 
L 214.515121 128.37961 
L 320.581253 131.023967 
" clip-path="url(#pe62fa5dada)" style="fill: none; stroke: #c7c7c7; stroke-opacity: 0.75; stroke-width: 0.7; stroke-linecap: square"/>
   </g>
   <g id="line2d_7">
    <path d="M 55.415923 30.334997 
L 108.448989 30.945233 
L 161.482055 35.62371 
L 214.515121 36.844183 
L 320.581253 64.711635 
" clip-path="url(#pe62fa5dada)" style="fill: none; stroke: #c7c7c7; stroke-opacity: 0.75; stroke-width: 0.7; stroke-linecap: square"/>
   </g>
   <g id="line2d_8">
    <path d="M 55.415923 99.495097 
L 108.448989 124.107957 
L 161.482055 138.550213 
L 214.515121 136.922916 
L 320.581253 148.924228 
" clip-path="url(#pe62fa5dada)" style="fill: none; stroke: #c7c7c7; stroke-opacity: 0.75; stroke-width: 0.7; stroke-linecap: square"/>
   </g>
   <g id="line2d_9">
    <path d="M 55.415923 138.143389 
L 108.448989 144.652575 
L 161.482055 146.279871 
L 214.515121 146.890107 
L 320.581253 143.635514 
" clip-path="url(#pe62fa5dada)" style="fill: none; stroke: #c7c7c7; stroke-opacity: 0.75; stroke-width: 0.7; stroke-linecap: square"/>
   </g>
   <g id="line2d_10">
    <path d="M 55.415923 115.768062 
L 108.448989 128.176198 
L 161.482055 130.820554 
L 214.515121 130.006906 
L 320.581253 134.27856 
" clip-path="url(#pe62fa5dada)" style="fill: none; stroke: #c7c7c7; stroke-opacity: 0.75; stroke-width: 0.7; stroke-linecap: square"/>
   </g>
   <g id="line2d_11">
    <path d="M 55.415923 83.222132 
L 108.448989 90.544967 
L 161.482055 104.580399 
L 214.515121 104.580399 
L 320.581253 122.277248 
" clip-path="url(#pe62fa5dada)" style="fill: none; stroke: #c7c7c7; stroke-opacity: 0.75; stroke-width: 0.7; stroke-linecap: square"/>
   </g>
   <g id="line2d_12">
    <path d="M 55.415923 71.017409 
L 108.448989 74.272002 
L 161.482055 80.170952 
L 214.515121 79.967539 
L 320.581253 90.138142 
" clip-path="url(#pe62fa5dada)" style="fill: none; stroke: #c7c7c7; stroke-opacity: 0.75; stroke-width: 0.7; stroke-linecap: square"/>
   </g>
   <g id="line2d_13">
    <path d="M 55.415923 93.392735 
L 108.448989 92.375675 
L 161.482055 101.325806 
L 214.515121 97.664389 
L 320.581253 111.089585 
" clip-path="url(#pe62fa5dada)" style="fill: none; stroke: #c7c7c7; stroke-opacity: 0.75; stroke-width: 0.7; stroke-linecap: square"/>
   </g>
   <g id="line2d_14">
    <path d="M 55.415923 127.972786 
L 108.448989 124.107957 
L 161.482055 121.870424 
L 214.515121 119.429479 
L 320.581253 122.48066 
" clip-path="url(#pe62fa5dada)" style="fill: none; stroke: #c7c7c7; stroke-opacity: 0.75; stroke-width: 0.7; stroke-linecap: square"/>
   </g>
   <g id="line2d_15">
    <path d="M 55.415923 56.778565 
L 108.448989 76.916359 
L 161.482055 94.002972 
L 214.515121 98.274625 
L 320.581253 122.684072 
" clip-path="url(#pe62fa5dada)" style="fill: none; stroke: #c7c7c7; stroke-opacity: 0.75; stroke-width: 0.7; stroke-linecap: square"/>
   </g>
   <g id="line2d_16">
    <path d="M 55.415923 119.836303 
L 108.448989 121.870424 
L 161.482055 137.126328 
L 214.515121 124.311369 
L 320.581253 125.531841 
" clip-path="url(#pe62fa5dada)" style="fill: none; stroke: #c7c7c7; stroke-opacity: 0.75; stroke-width: 0.7; stroke-linecap: square"/>
   </g>
   <g id="line2d_17">
    <path d="M 55.415923 148.313992 
L 108.448989 158.281183 
L 161.482055 168.451786 
L 214.515121 162.349424 
L 320.581253 169.87567 
" clip-path="url(#pe62fa5dada)" style="fill: none; stroke: #c7c7c7; stroke-opacity: 0.75; stroke-width: 0.7; stroke-linecap: square"/>
   </g>
   <g id="line2d_18">
    <path d="M 55.415923 115.768062 
L 108.448989 127.565962 
L 161.482055 127.362549 
L 214.515121 136.719504 
L 320.581253 130.006906 
" clip-path="url(#pe62fa5dada)" style="fill: none; stroke: #c7c7c7; stroke-opacity: 0.75; stroke-width: 0.7; stroke-linecap: square"/>
   </g>
   <g id="line2d_19">
    <path d="M 55.415923 115.768062 
L 108.448989 119.429479 
L 161.482055 126.142077 
L 214.515121 129.803494 
L 320.581253 126.345489 
" clip-path="url(#pe62fa5dada)" style="fill: none; stroke: #c7c7c7; stroke-opacity: 0.75; stroke-width: 0.7; stroke-linecap: square"/>
   </g>
   <g id="line2d_20">
    <path d="M 55.415923 89.324494 
L 108.448989 98.884861 
L 161.482055 102.74969 
L 214.515121 105.190635 
L 320.581253 115.971474 
" clip-path="url(#pe62fa5dada)" style="fill: none; stroke: #c7c7c7; stroke-opacity: 0.75; stroke-width: 0.7; stroke-linecap: square"/>
   </g>
   <g id="line2d_21">
    <path d="M 55.415923 127.972786 
L 108.448989 135.092208 
L 161.482055 141.19457 
L 214.515121 143.635514 
L 320.581253 145.059399 
" clip-path="url(#pe62fa5dada)" style="fill: none; stroke: #c7c7c7; stroke-opacity: 0.75; stroke-width: 0.7; stroke-linecap: square"/>
   </g>
   <g id="line2d_22">
    <path d="M 55.415923 46.607962 
L 108.448989 52.303499 
L 161.482055 60.846806 
L 214.515121 80.374364 
L 320.581253 99.901921 
" clip-path="url(#pe62fa5dada)" style="fill: none; stroke: #c7c7c7; stroke-opacity: 0.75; stroke-width: 0.7; stroke-linecap: square"/>
   </g>
   <g id="line2d_23">
    <path d="M 55.415923 115.768062 
L 108.448989 119.429479 
L 161.482055 116.988534 
L 214.515121 113.327117 
L 320.581253 111.699821 
" clip-path="url(#pe62fa5dada)" style="fill: none; stroke: #c7c7c7; stroke-opacity: 0.75; stroke-width: 0.7; stroke-linecap: square"/>
   </g>
   <g id="line2d_24">
    <path d="M 55.415923 105.597459 
L 108.448989 105.394047 
L 161.482055 115.768062 
L 214.515121 112.310057 
L 320.581253 124.311369 
" clip-path="url(#pe62fa5dada)" style="fill: none; stroke: #c7c7c7; stroke-opacity: 0.75; stroke-width: 0.7; stroke-linecap: square"/>
   </g>
   <g id="line2d_25">
    <path d="M 55.415923 115.768062 
L 108.448989 133.871735 
L 161.482055 145.059399 
L 214.515121 142.821866 
L 320.581253 147.703755 
" clip-path="url(#pe62fa5dada)" style="fill: none; stroke: #c7c7c7; stroke-opacity: 0.75; stroke-width: 0.7; stroke-linecap: square"/>
   </g>
   <g id="line2d_26">
    <path d="M 55.415923 66.949168 
L 108.448989 80.9846 
L 161.482055 93.392735 
L 214.515121 99.495097 
L 320.581253 111.699821 
" clip-path="url(#pe62fa5dada)" style="fill: none; stroke: #c7c7c7; stroke-opacity: 0.75; stroke-width: 0.7; stroke-linecap: square"/>
   </g>
   <g id="line2d_27">
    <path d="M 55.415923 103.563338 
L 108.448989 108.038404 
L 161.482055 118.819243 
L 214.515121 122.887484 
L 320.581253 121.260188 
" clip-path="url(#pe62fa5dada)" style="fill: none; stroke: #c7c7c7; stroke-opacity: 0.75; stroke-width: 0.7; stroke-linecap: square"/>
   </g>
   <g id="line2d_28">
    <path d="M 55.415923 166.621077 
L 108.448989 156.04365 
L 161.482055 147.093519 
L 214.515121 146.686695 
L 320.581253 147.500343 
" clip-path="url(#pe62fa5dada)" style="fill: none; stroke: #c7c7c7; stroke-opacity: 0.75; stroke-width: 0.7; stroke-linecap: square"/>
   </g>
   <g id="line2d_29">
    <path d="M 55.415923 32.369117 
L 108.448989 42.946545 
L 161.482055 53.523972 
L 214.515121 57.388801 
L 320.581253 76.306122 
" clip-path="url(#pe62fa5dada)" style="fill: none; stroke: #c7c7c7; stroke-opacity: 0.75; stroke-width: 0.7; stroke-linecap: square"/>
   </g>
   <g id="line2d_30">
    <path d="M 55.415923 142.21163 
L 108.448989 146.890107 
L 161.482055 143.635514 
L 214.515121 144.855987 
L 320.581253 164.993781 
" clip-path="url(#pe62fa5dada)" style="fill: none; stroke: #c7c7c7; stroke-opacity: 0.75; stroke-width: 0.7; stroke-linecap: square"/>
   </g>
   <g id="line2d_31">
    <path d="M 55.415923 64.915047 
L 108.448989 83.222132 
L 161.482055 90.544967 
L 214.515121 84.442605 
L 320.581253 95.426856 
" clip-path="url(#pe62fa5dada)" style="fill: none; stroke: #c7c7c7; stroke-opacity: 0.75; stroke-width: 0.7; stroke-linecap: square"/>
   </g>
   <g id="line2d_32">
    <path d="M 55.415923 38.471479 
L 108.448989 44.573841 
L 161.482055 58.405861 
L 214.515121 63.491163 
L 320.581253 88.510846 
" clip-path="url(#pe62fa5dada)" style="fill: none; stroke: #c7c7c7; stroke-opacity: 0.75; stroke-width: 0.7; stroke-linecap: square"/>
   </g>
   <g id="line2d_33">
    <path d="M 55.415923 87.290374 
L 108.448989 97.664389 
L 161.482055 112.310057 
L 214.515121 107.224756 
L 320.581253 120.853364 
" clip-path="url(#pe62fa5dada)" style="fill: none; stroke: #c7c7c7; stroke-opacity: 0.75; stroke-width: 0.7; stroke-linecap: square"/>
   </g>
   <g id="line2d_34">
    <path d="M 55.415923 38.471479 
L 108.448989 44.167017 
L 161.482055 51.896675 
L 214.515121 59.829746 
L 320.581253 69.593524 
" clip-path="url(#pe62fa5dada)" style="fill: none; stroke: #c7c7c7; stroke-opacity: 0.75; stroke-width: 0.7; stroke-linecap: square"/>
   </g>
   <g id="line2d_35">
    <path d="M 55.415923 54.744444 
L 108.448989 64.711635 
L 161.482055 80.577776 
L 214.515121 83.01872 
L 320.581253 101.73263 
" clip-path="url(#pe62fa5dada)" style="fill: none; stroke: #c7c7c7; stroke-opacity: 0.75; stroke-width: 0.7; stroke-linecap: square"/>
   </g>
   <g id="line2d_36">
    <path d="M 55.415923 115.768062 
L 108.448989 115.361238 
L 161.482055 124.514781 
L 214.515121 132.651263 
L 320.581253 146.890107 
" clip-path="url(#pe62fa5dada)" style="fill: none; stroke: #c7c7c7; stroke-opacity: 0.75; stroke-width: 0.7; stroke-linecap: square"/>
   </g>
   <g id="line2d_37">
    <path d="M 55.415923 142.21163 
L 108.448989 144.042338 
L 161.482055 137.939977 
L 214.515121 151.771997 
L 320.581253 146.076459 
" clip-path="url(#pe62fa5dada)" style="fill: none; stroke: #c7c7c7; stroke-opacity: 0.75; stroke-width: 0.7; stroke-linecap: square"/>
   </g>
   <g id="line2d_38">
    <path d="M 55.415923 130.006906 
L 108.448989 130.006906 
L 161.482055 132.041027 
L 214.515121 127.565962 
L 320.581253 135.29562 
" clip-path="url(#pe62fa5dada)" style="fill: none; stroke: #c7c7c7; stroke-opacity: 0.75; stroke-width: 0.7; stroke-linecap: square"/>
   </g>
   <g id="line2d_39">
    <path d="M 55.415923 111.699821 
L 108.448989 110.479348 
L 161.482055 110.275936 
L 214.515121 104.580399 
L 320.581253 101.936042 
" clip-path="url(#pe62fa5dada)" style="fill: none; stroke: #c7c7c7; stroke-opacity: 0.75; stroke-width: 0.7; stroke-linecap: square"/>
   </g>
   <g id="line2d_40">
    <path d="M 55.415923 105.597459 
L 108.448989 118.209007 
L 161.482055 133.261499 
L 214.515121 141.19457 
L 320.581253 141.804806 
" clip-path="url(#pe62fa5dada)" style="fill: none; stroke: #c7c7c7; stroke-opacity: 0.75; stroke-width: 0.7; stroke-linecap: square"/>
   </g>
   <g id="line2d_41">
    <path d="M 55.415923 103.563338 
L 108.448989 123.904544 
L 161.482055 143.22869 
L 214.515121 134.481972 
L 320.581253 141.601394 
" clip-path="url(#pe62fa5dada)" style="fill: none; stroke: #c7c7c7; stroke-opacity: 0.75; stroke-width: 0.7; stroke-linecap: square"/>
   </g>
   <g id="line2d_42">
    <path d="M 55.415923 32.369117 
L 108.448989 41.726072 
L 161.482055 55.35468 
L 214.515121 59.829746 
L 320.581253 91.562027 
" clip-path="url(#pe62fa5dada)" style="fill: none; stroke: #c7c7c7; stroke-opacity: 0.75; stroke-width: 0.7; stroke-linecap: square"/>
   </g>
   <g id="line2d_43">
    <path d="M 55.415923 56.778565 
L 108.448989 63.491163 
L 161.482055 80.781188 
L 214.515121 91.562027 
L 320.581253 104.987223 
" clip-path="url(#pe62fa5dada)" style="fill: none; stroke: #c7c7c7; stroke-opacity: 0.75; stroke-width: 0.7; stroke-linecap: square"/>
   </g>
   <g id="line2d_44">
    <path d="M 55.415923 97.460977 
L 108.448989 99.291685 
L 161.482055 106.004283 
L 214.515121 108.038404 
L 320.581253 107.428168 
" clip-path="url(#pe62fa5dada)" style="fill: none; stroke: #c7c7c7; stroke-opacity: 0.75; stroke-width: 0.7; stroke-linecap: square"/>
   </g>
   <g id="line2d_45">
    <path d="M 55.415923 136.109268 
L 108.448989 134.481972 
L 161.482055 137.32974 
L 214.515121 140.177509 
L 320.581253 140.787745 
" clip-path="url(#pe62fa5dada)" style="fill: none; stroke: #c7c7c7; stroke-opacity: 0.75; stroke-width: 0.7; stroke-linecap: square"/>
   </g>
   <g id="line2d_46">
    <path d="M 55.415923 136.109268 
L 108.448989 151.975409 
L 161.482055 157.670946 
L 214.515121 157.264122 
L 320.581253 143.22869 
" clip-path="url(#pe62fa5dada)" style="fill: none; stroke: #c7c7c7; stroke-opacity: 0.75; stroke-width: 0.7; stroke-linecap: square"/>
   </g>
   <g id="line2d_47">
    <path d="M 55.415923 115.768062 
L 108.448989 113.123705 
L 161.482055 107.834992 
L 214.515121 104.173575 
L 320.581253 98.884861 
" clip-path="url(#pe62fa5dada)" style="fill: none; stroke: #c7c7c7; stroke-opacity: 0.75; stroke-width: 0.7; stroke-linecap: square"/>
   </g>
   <g id="line2d_48">
    <path d="M 55.415923 58.812685 
L 108.448989 65.525283 
L 161.482055 78.950479 
L 214.515121 81.188012 
L 320.581253 92.172263 
" clip-path="url(#pe62fa5dada)" style="fill: none; stroke: #c7c7c7; stroke-opacity: 0.75; stroke-width: 0.7; stroke-linecap: square"/>
   </g>
   <g id="line2d_49">
    <path d="M 55.415923 40.5056 
L 108.448989 51.286439 
L 161.482055 60.23657 
L 214.515121 69.593524 
L 320.581253 89.121082 
" clip-path="url(#pe62fa5dada)" style="fill: none; stroke: #c7c7c7; stroke-opacity: 0.75; stroke-width: 0.7; stroke-linecap: square"/>
   </g>
   <g id="line2d_50">
    <path d="M 55.415923 101.529218 
L 108.448989 107.224756 
L 161.482055 108.445228 
L 214.515121 111.089585 
L 320.581253 116.174886 
" clip-path="url(#pe62fa5dada)" style="fill: none; stroke: #c7c7c7; stroke-opacity: 0.75; stroke-width: 0.7; stroke-linecap: square"/>
   </g>
   <g id="line2d_51">
    <path d="M 55.415923 71.017409 
L 108.448989 88.104022 
L 161.482055 97.460977 
L 214.515121 118.005595 
L 320.581253 128.786434 
" clip-path="url(#pe62fa5dada)" style="fill: none; stroke: #c7c7c7; stroke-opacity: 0.75; stroke-width: 0.7; stroke-linecap: square"/>
   </g>
   <g id="line2d_52">
    <path d="M 55.415923 50.676203 
L 108.448989 60.439982 
L 161.482055 74.678826 
L 214.515121 77.119771 
L 320.581253 104.783811 
" clip-path="url(#pe62fa5dada)" style="fill: none; stroke: #c7c7c7; stroke-opacity: 0.75; stroke-width: 0.7; stroke-linecap: square"/>
   </g>
   <g id="line2d_53">
    <path d="M 55.415923 44.573841 
L 108.448989 53.727384 
L 161.482055 60.439982 
L 214.515121 62.067278 
L 320.581253 77.323183 
" clip-path="url(#pe62fa5dada)" style="fill: none; stroke: #c7c7c7; stroke-opacity: 0.75; stroke-width: 0.7; stroke-linecap: square"/>
   </g>
   <g id="line2d_54">
    <path d="M 55.415923 50.676203 
L 108.448989 70.203761 
L 161.482055 73.865178 
L 214.515121 76.306122 
L 320.581253 82.408484 
" clip-path="url(#pe62fa5dada)" style="fill: none; stroke: #c7c7c7; stroke-opacity: 0.75; stroke-width: 0.7; stroke-linecap: square"/>
   </g>
   <g id="line2d_55">
    <path d="M 55.415923 30.334997 
L 108.448989 34.60665 
L 161.482055 49.659143 
L 214.515121 57.999037 
L 320.581253 76.509534 
" clip-path="url(#pe62fa5dada)" style="fill: none; stroke: #c7c7c7; stroke-opacity: 0.75; stroke-width: 0.7; stroke-linecap: square"/>
   </g>
   <g id="line2d_56">
    <path d="M 55.415923 32.369117 
L 108.448989 37.657831 
L 161.482055 41.726072 
L 214.515121 41.929484 
L 320.581253 47.218198 
" clip-path="url(#pe62fa5dada)" style="fill: none; stroke: #c7c7c7; stroke-opacity: 0.75; stroke-width: 0.7; stroke-linecap: square"/>
   </g>
   <g id="line2d_57">
    <path d="M 55.415923 130.006906 
L 108.448989 142.008218 
L 161.482055 156.04365 
L 214.515121 153.195881 
L 320.581253 156.450474 
" clip-path="url(#pe62fa5dada)" style="fill: none; stroke: #c7c7c7; stroke-opacity: 0.75; stroke-width: 0.7; stroke-linecap: square"/>
   </g>
   <g id="line2d_58">
    <path d="M 55.415923 136.109268 
L 108.448989 139.567273 
L 161.482055 136.719504 
L 214.515121 135.702444 
L 320.581253 137.126328 
" clip-path="url(#pe62fa5dada)" style="fill: none; stroke: #c7c7c7; stroke-opacity: 0.75; stroke-width: 0.7; stroke-linecap: square"/>
   </g>
   <g id="line2d_59">
    <path d="M 55.415923 136.109268 
L 108.448989 144.652575 
L 161.482055 155.433414 
L 214.515121 148.720816 
L 320.581253 150.348112 
" clip-path="url(#pe62fa5dada)" style="fill: none; stroke: #c7c7c7; stroke-opacity: 0.75; stroke-width: 0.7; stroke-linecap: square"/>
   </g>
   <g id="line2d_60">
    <path d="M 55.415923 42.53972 
L 108.448989 47.218198 
L 161.482055 50.676203 
L 214.515121 56.575153 
L 320.581253 67.966228 
" clip-path="url(#pe62fa5dada)" style="fill: none; stroke: #c7c7c7; stroke-opacity: 0.75; stroke-width: 0.7; stroke-linecap: square"/>
   </g>
   <g id="line2d_61">
    <path d="M 55.415923 95.426856 
L 108.448989 91.765439 
L 161.482055 98.478037 
L 214.515121 106.614519 
L 320.581253 112.513469 
" clip-path="url(#pe62fa5dada)" style="fill: none; stroke: #c7c7c7; stroke-opacity: 0.75; stroke-width: 0.7; stroke-linecap: square"/>
   </g>
   <g id="line2d_62">
    <path d="M 55.415923 40.5056 
L 108.448989 41.726072 
L 161.482055 51.286439 
L 214.515121 62.27069 
L 320.581253 78.340243 
" clip-path="url(#pe62fa5dada)" style="fill: none; stroke: #c7c7c7; stroke-opacity: 0.75; stroke-width: 0.7; stroke-linecap: square"/>
   </g>
   <g id="line2d_63">
    <path d="M 55.415923 142.21163 
L 108.448989 130.41373 
L 161.482055 135.499032 
L 214.515121 122.684072 
L 320.581253 118.615831 
" clip-path="url(#pe62fa5dada)" style="fill: none; stroke: #c7c7c7; stroke-opacity: 0.75; stroke-width: 0.7; stroke-linecap: square"/>
   </g>
   <g id="line2d_64">
    <path d="M 55.415923 130.006906 
L 108.448989 130.820554 
L 161.482055 144.449163 
L 214.515121 135.092208 
L 320.581253 136.516092 
" clip-path="url(#pe62fa5dada)" style="fill: none; stroke: #c7c7c7; stroke-opacity: 0.75; stroke-width: 0.7; stroke-linecap: square"/>
   </g>
   <g id="line2d_65">
    <path d="M 55.415923 113.733941 
L 108.448989 117.802183 
L 161.482055 130.210318 
L 214.515121 132.651263 
L 320.581253 148.313992 
" clip-path="url(#pe62fa5dada)" style="fill: none; stroke: #c7c7c7; stroke-opacity: 0.75; stroke-width: 0.7; stroke-linecap: square"/>
   </g>
   <g id="line2d_66">
    <path d="M 55.415923 113.733941 
L 108.448989 126.752313 
L 161.482055 143.432102 
L 214.515121 141.397982 
L 320.581253 149.12764 
" clip-path="url(#pe62fa5dada)" style="fill: none; stroke: #c7c7c7; stroke-opacity: 0.75; stroke-width: 0.7; stroke-linecap: square"/>
   </g>
   <g id="line2d_67">
    <path d="M 55.415923 125.938665 
L 108.448989 127.362549 
L 161.482055 130.210318 
L 214.515121 120.649951 
L 320.581253 133.871735 
" clip-path="url(#pe62fa5dada)" style="fill: none; stroke: #c7c7c7; stroke-opacity: 0.75; stroke-width: 0.7; stroke-linecap: square"/>
   </g>
   <g id="line2d_68">
    <path d="M 55.415923 107.63158 
L 108.448989 113.937354 
L 161.482055 118.819243 
L 214.515121 119.429479 
L 320.581253 124.514781 
" clip-path="url(#pe62fa5dada)" style="fill: none; stroke: #c7c7c7; stroke-opacity: 0.75; stroke-width: 0.7; stroke-linecap: square"/>
   </g>
   <g id="line2d_69">
    <path d="M 55.415923 117.802183 
L 108.448989 124.514781 
L 161.482055 133.668323 
L 214.515121 129.803494 
L 320.581253 135.29562 
" clip-path="url(#pe62fa5dada)" style="fill: none; stroke: #c7c7c7; stroke-opacity: 0.75; stroke-width: 0.7; stroke-linecap: square"/>
   </g>
   <g id="line2d_70">
    <path d="M 55.415923 40.5056 
L 108.448989 47.218198 
L 161.482055 60.846806 
L 214.515121 65.728695 
L 320.581253 84.035781 
" clip-path="url(#pe62fa5dada)" style="fill: none; stroke: #c7c7c7; stroke-opacity: 0.75; stroke-width: 0.7; stroke-linecap: square"/>
   </g>
   <g id="line2d_71">
    <path d="M 55.415923 60.846806 
L 108.448989 73.458354 
L 161.482055 99.088273 
L 214.515121 100.71557 
L 320.581253 117.802183 
" clip-path="url(#pe62fa5dada)" style="fill: none; stroke: #c7c7c7; stroke-opacity: 0.75; stroke-width: 0.7; stroke-linecap: square"/>
   </g>
   <g id="line2d_72">
    <path d="M 55.415923 36.437359 
L 108.448989 43.760193 
L 161.482055 50.269379 
L 214.515121 56.168328 
L 320.581253 66.745756 
" clip-path="url(#pe62fa5dada)" style="fill: none; stroke: #c7c7c7; stroke-opacity: 0.75; stroke-width: 0.7; stroke-linecap: square"/>
   </g>
   <g id="line2d_73">
    <path d="M 55.415923 146.279871 
L 108.448989 147.703755 
L 161.482055 151.568585 
L 214.515121 152.789057 
L 320.581253 162.146012 
" clip-path="url(#pe62fa5dada)" style="fill: none; stroke: #c7c7c7; stroke-opacity: 0.75; stroke-width: 0.7; stroke-linecap: square"/>
   </g>
   <g id="line2d_74">
    <path d="M 55.415923 140.177509 
L 108.448989 130.006906 
L 161.482055 125.531841 
L 214.515121 127.362549 
L 320.581253 122.073836 
" clip-path="url(#pe62fa5dada)" style="fill: none; stroke: #c7c7c7; stroke-opacity: 0.75; stroke-width: 0.7; stroke-linecap: square"/>
   </g>
   <g id="line2d_75">
    <path d="M 55.415923 75.08565 
L 108.448989 87.493786 
L 161.482055 101.936042 
L 214.515121 97.054153 
L 320.581253 124.718193 
" clip-path="url(#pe62fa5dada)" style="fill: none; stroke: #c7c7c7; stroke-opacity: 0.75; stroke-width: 0.7; stroke-linecap: square"/>
   </g>
   <g id="line2d_76">
    <path d="M 55.415923 93.392735 
L 108.448989 105.597459 
L 161.482055 111.496409 
L 214.515121 113.530529 
L 320.581253 117.598771 
" clip-path="url(#pe62fa5dada)" style="fill: none; stroke: #c7c7c7; stroke-opacity: 0.75; stroke-width: 0.7; stroke-linecap: square"/>
   </g>
   <g id="line2d_77">
    <path d="M 55.415923 160.518715 
L 108.448989 183.911102 
L 161.482055 180.046273 
L 214.515121 180.249685 
L 320.581253 188.58958 
" clip-path="url(#pe62fa5dada)" style="fill: none; stroke: #c7c7c7; stroke-opacity: 0.75; stroke-width: 0.7; stroke-linecap: square"/>
   </g>
   <g id="line2d_78">
    <path d="M 55.415923 162.552836 
L 108.448989 169.468846 
L 161.482055 175.164384 
L 214.515121 174.757559 
L 320.581253 170.485906 
" clip-path="url(#pe62fa5dada)" style="fill: none; stroke: #c7c7c7; stroke-opacity: 0.75; stroke-width: 0.7; stroke-linecap: square"/>
   </g>
   <g id="line2d_79">
    <path d="M 55.415923 121.870424 
L 108.448989 132.244439 
L 161.482055 132.447851 
L 214.515121 125.938665 
L 320.581253 113.123705 
" clip-path="url(#pe62fa5dada)" style="fill: none; stroke: #c7c7c7; stroke-opacity: 0.75; stroke-width: 0.7; stroke-linecap: square"/>
   </g>
   <g id="line2d_80">
    <path d="M 55.415923 103.563338 
L 108.448989 118.615831 
L 161.482055 121.056776 
L 214.515121 123.090896 
L 320.581253 122.684072 
" clip-path="url(#pe62fa5dada)" style="fill: none; stroke: #c7c7c7; stroke-opacity: 0.75; stroke-width: 0.7; stroke-linecap: square"/>
   </g>
   <g id="line2d_81">
    <path d="M 55.415923 60.846806 
L 108.448989 63.084338 
L 161.482055 69.390112 
L 214.515121 83.628957 
L 320.581253 112.106645 
" clip-path="url(#pe62fa5dada)" style="fill: none; stroke: #c7c7c7; stroke-opacity: 0.75; stroke-width: 0.7; stroke-linecap: square"/>
   </g>
   <g id="line2d_82">
    <path d="M 55.415923 79.153891 
L 108.448989 90.544967 
L 161.482055 97.867801 
L 214.515121 103.766751 
L 320.581253 115.361238 
" clip-path="url(#pe62fa5dada)" style="fill: none; stroke: #c7c7c7; stroke-opacity: 0.75; stroke-width: 0.7; stroke-linecap: square"/>
   </g>
   <g id="line2d_83">
    <path d="M 55.415923 115.768062 
L 108.448989 122.277248 
L 161.482055 133.871735 
L 214.515121 132.854675 
L 320.581253 154.416353 
" clip-path="url(#pe62fa5dada)" style="fill: none; stroke: #c7c7c7; stroke-opacity: 0.75; stroke-width: 0.7; stroke-linecap: square"/>
   </g>
   <g id="line2d_84">
    <path d="M 55.415923 97.460977 
L 108.448989 103.563338 
L 161.482055 115.361238 
L 214.515121 120.649951 
L 320.581253 115.971474 
" clip-path="url(#pe62fa5dada)" style="fill: none; stroke: #c7c7c7; stroke-opacity: 0.75; stroke-width: 0.7; stroke-linecap: square"/>
   </g>
   <g id="line2d_85">
    <path d="M 55.415923 44.573841 
L 108.448989 51.693263 
L 161.482055 68.16964 
L 214.515121 68.779876 
L 320.581253 93.189323 
" clip-path="url(#pe62fa5dada)" style="fill: none; stroke: #c7c7c7; stroke-opacity: 0.75; stroke-width: 0.7; stroke-linecap: square"/>
   </g>
   <g id="line2d_86">
    <path d="M 55.415923 71.017409 
L 108.448989 83.425544 
L 161.482055 101.73263 
L 214.515121 107.428168 
L 320.581253 144.855987 
" clip-path="url(#pe62fa5dada)" style="fill: none; stroke: #c7c7c7; stroke-opacity: 0.75; stroke-width: 0.7; stroke-linecap: square"/>
   </g>
   <g id="line2d_87">
    <path d="M 55.415923 150.348112 
L 108.448989 145.262811 
L 161.482055 140.991157 
L 214.515121 141.601394 
L 320.581253 133.668323 
" clip-path="url(#pe62fa5dada)" style="fill: none; stroke: #c7c7c7; stroke-opacity: 0.75; stroke-width: 0.7; stroke-linecap: square"/>
   </g>
   <g id="line2d_88">
    <path d="M 55.415923 138.143389 
L 108.448989 145.262811 
L 161.482055 152.088415 
L 214.515121 153.218482 
L 320.581253 156.021049 
" clip-path="url(#pe62fa5dada)" style="fill: none; stroke: #c7c7c7; stroke-opacity: 0.75; stroke-width: 0.7; stroke-linecap: square"/>
   </g>
   <g id="line2d_89">
    <path d="M 55.415923 93.392735 
L 108.448989 102.139454 
L 161.482055 108.64864 
L 214.515121 114.751002 
L 320.581253 119.022655 
" clip-path="url(#pe62fa5dada)" style="fill: none; stroke: #c7c7c7; stroke-opacity: 0.75; stroke-width: 0.7; stroke-linecap: square"/>
   </g>
   <g id="line2d_90">
    <path d="M 55.415923 115.768062 
L 108.448989 109.462288 
L 161.482055 120.243127 
L 214.515121 122.887484 
L 320.581253 117.802183 
" clip-path="url(#pe62fa5dada)" style="fill: none; stroke: #c7c7c7; stroke-opacity: 0.75; stroke-width: 0.7; stroke-linecap: square"/>
   </g>
   <g id="line2d_91">
    <path d="M 55.415923 117.802183 
L 108.448989 139.770685 
L 161.482055 144.855987 
L 214.515121 146.076459 
L 320.581253 150.1447 
" clip-path="url(#pe62fa5dada)" style="fill: none; stroke: #c7c7c7; stroke-opacity: 0.75; stroke-width: 0.7; stroke-linecap: square"/>
   </g>
   <g id="line2d_92">
    <path d="M 55.415923 89.550508 
L 108.448989 99.495097 
L 161.482055 105.168034 
L 214.515121 111.767625 
L 320.581253 122.412856 
" clip-path="url(#pe62fa5dada)" style="fill: none; stroke: #c7c7c7; stroke-opacity: 0.75; stroke-width: 0.7; stroke-linecap: square"/>
   </g>
   <g id="line2d_93">
    <path d="M 55.415923 46.607962 
L 108.448989 61.863866 
L 161.482055 79.967539 
L 214.515121 81.594836 
L 320.581253 86.069901 
" clip-path="url(#pe62fa5dada)" style="fill: none; stroke: #c7c7c7; stroke-opacity: 0.75; stroke-width: 0.7; stroke-linecap: square"/>
   </g>
   <g id="line2d_94">
    <path d="M 55.415923 38.471479 
L 108.448989 59.422921 
L 161.482055 80.577776 
L 214.515121 83.832369 
L 320.581253 96.647328 
" clip-path="url(#pe62fa5dada)" style="fill: none; stroke: #c7c7c7; stroke-opacity: 0.75; stroke-width: 0.7; stroke-linecap: square"/>
   </g>
   <g id="line2d_95">
    <path d="M 55.415923 146.279871 
L 108.448989 150.1447 
L 161.482055 145.466223 
L 214.515121 148.11058 
L 320.581253 140.177509 
" clip-path="url(#pe62fa5dada)" style="fill: none; stroke: #c7c7c7; stroke-opacity: 0.75; stroke-width: 0.7; stroke-linecap: square"/>
   </g>
   <g id="line2d_96">
    <path d="M 55.415923 58.812685 
L 108.448989 70.203761 
L 161.482055 76.712947 
L 214.515121 88.104022 
L 320.581253 100.918982 
" clip-path="url(#pe62fa5dada)" style="fill: none; stroke: #c7c7c7; stroke-opacity: 0.75; stroke-width: 0.7; stroke-linecap: square"/>
   </g>
   <g id="line2d_97">
    <path d="M 55.415923 79.153891 
L 108.448989 84.035781 
L 161.482055 89.121082 
L 214.515121 94.206384 
L 320.581253 94.002972 
" clip-path="url(#pe62fa5dada)" style="fill: none; stroke: #c7c7c7; stroke-opacity: 0.75; stroke-width: 0.7; stroke-linecap: square"/>
   </g>
   <g id="line2d_98">
    <path d="M 55.415923 148.313992 
L 108.448989 144.855987 
L 161.482055 149.12764 
L 214.515121 147.703755 
L 320.581253 153.806117 
" clip-path="url(#pe62fa5dada)" style="fill: none; stroke: #c7c7c7; stroke-opacity: 0.75; stroke-width: 0.7; stroke-linecap: square"/>
   </g>
   <g id="line2d_99">
    <path d="M 55.415923 119.836303 
L 108.448989 121.870424 
L 161.482055 121.260188 
L 214.515121 119.226067 
L 320.581253 118.615831 
" clip-path="url(#pe62fa5dada)" style="fill: none; stroke: #c7c7c7; stroke-opacity: 0.75; stroke-width: 0.7; stroke-linecap: square"/>
   </g>
   <g id="line2d_100">
    <path d="M 55.415923 124.413075 
L 108.448989 129.244111 
L 161.482055 131.702007 
L 214.515121 127.125235 
L 320.581253 127.549011 
" clip-path="url(#pe62fa5dada)" style="fill: none; stroke: #c7c7c7; stroke-opacity: 0.75; stroke-width: 0.7; stroke-linecap: square"/>
   </g>
   <g id="line2d_101">
    <path d="M 55.415923 172.723439 
L 108.448989 169.672258 
L 161.482055 167.231313 
L 214.515121 171.096142 
L 320.581253 165.197193 
" clip-path="url(#pe62fa5dada)" style="fill: none; stroke: #c7c7c7; stroke-opacity: 0.75; stroke-width: 0.7; stroke-linecap: square"/>
   </g>
   <g id="line2d_102">
    <path d="M 55.415923 79.153891 
L 108.448989 81.188012 
L 161.482055 86.88355 
L 214.515121 86.680137 
L 320.581253 101.122394 
" clip-path="url(#pe62fa5dada)" style="fill: none; stroke: #c7c7c7; stroke-opacity: 0.75; stroke-width: 0.7; stroke-linecap: square"/>
   </g>
   <g id="line2d_103">
    <path d="M 55.415923 99.495097 
L 108.448989 104.783811 
L 161.482055 118.412419 
L 214.515121 124.311369 
L 320.581253 142.21163 
" clip-path="url(#pe62fa5dada)" style="fill: none; stroke: #c7c7c7; stroke-opacity: 0.75; stroke-width: 0.7; stroke-linecap: square"/>
   </g>
   <g id="line2d_104">
    <path d="M 55.415923 119.327773 
L 108.448989 140.940304 
L 161.482055 147.347784 
L 214.515121 156.857298 
L 320.581253 163.671602 
" clip-path="url(#pe62fa5dada)" style="fill: none; stroke: #c7c7c7; stroke-opacity: 0.75; stroke-width: 0.7; stroke-linecap: square"/>
   </g>
   <g id="line2d_105">
    <path d="M 55.415923 56.778565 
L 108.448989 83.01872 
L 161.482055 98.274625 
L 214.515121 111.089585 
L 320.581253 122.277248 
" clip-path="url(#pe62fa5dada)" style="fill: none; stroke: #c7c7c7; stroke-opacity: 0.75; stroke-width: 0.7; stroke-linecap: square"/>
   </g>
   <g id="line2d_106">
    <path d="M 55.415923 150.348112 
L 108.448989 156.857298 
L 161.482055 143.838926 
L 214.515121 145.466223 
L 320.581253 137.939977 
" clip-path="url(#pe62fa5dada)" style="fill: none; stroke: #c7c7c7; stroke-opacity: 0.75; stroke-width: 0.7; stroke-linecap: square"/>
   </g>
   <g id="line2d_107">
    <path d="M 55.415923 107.63158 
L 108.448989 118.005595 
L 161.482055 126.345489 
L 214.515121 129.600082 
L 320.581253 152.992469 
" clip-path="url(#pe62fa5dada)" style="fill: none; stroke: #c7c7c7; stroke-opacity: 0.75; stroke-width: 0.7; stroke-linecap: square"/>
   </g>
   <g id="line2d_108">
    <path d="M 55.415923 44.573841 
L 108.448989 54.744444 
L 161.482055 70.203761 
L 214.515121 72.848117 
L 320.581253 83.01872 
" clip-path="url(#pe62fa5dada)" style="fill: none; stroke: #c7c7c7; stroke-opacity: 0.75; stroke-width: 0.7; stroke-linecap: square"/>
   </g>
   <g id="line2d_109">
    <path d="M 55.415923 156.450474 
L 108.448989 152.992469 
L 161.482055 149.534464 
L 214.515121 148.313992 
L 320.581253 138.143389 
" clip-path="url(#pe62fa5dada)" style="fill: none; stroke: #c7c7c7; stroke-opacity: 0.75; stroke-width: 0.7; stroke-linecap: square"/>
   </g>
   <g id="matplotlib.axis_1">
    <g id="xtick_1">
     <g id="line2d_110">
      <defs>
       <path id="mdf59aa37e0" d="M 0 0 
L 0 3.5 
" style="stroke: #222222; stroke-width: 0.8"/>
      </defs>
      <g>
       <use xlink:href="#mdf59aa37e0" x="55.415923" y="233.747057" style="fill: #222222; stroke: #222222; stroke-width: 0.8"/>
      </g>
     </g>
     <g id="text_1">
      <text style="font-size: 8.5px; font-family: 'DejaVu Sans'; text-anchor: middle; fill: #222222" x="55.415923" y="247.205065" transform="rotate(-0 55.415923 247.205065)">0.0</text>
     </g>
    </g>
    <g id="xtick_2">
     <g id="line2d_111">
      <g>
       <use xlink:href="#mdf59aa37e0" x="108.448989" y="233.747057" style="fill: #222222; stroke: #222222; stroke-width: 0.8"/>
      </g>
     </g>
     <g id="text_2">
      <text style="font-size: 8.5px; font-family: 'DejaVu Sans'; text-anchor: middle; fill: #222222" x="108.448989" y="247.205065" transform="rotate(-0 108.448989 247.205065)">0.1</text>
     </g>
    </g>
    <g id="xtick_3">
     <g id="line2d_112">
      <g>
       <use xlink:href="#mdf59aa37e0" x="161.482055" y="233.747057" style="fill: #222222; stroke: #222222; stroke-width: 0.8"/>
      </g>
     </g>
     <g id="text_3">
      <text style="font-size: 8.5px; font-family: 'DejaVu Sans'; text-anchor: middle; fill: #222222" x="161.482055" y="247.205065" transform="rotate(-0 161.482055 247.205065)">0.2</text>
     </g>
    </g>
    <g id="xtick_4">
     <g id="line2d_113">
      <g>
       <use xlink:href="#mdf59aa37e0" x="214.515121" y="233.747057" style="fill: #222222; stroke: #222222; stroke-width: 0.8"/>
      </g>
     </g>
     <g id="text_4">
      <text style="font-size: 8.5px; font-family: 'DejaVu Sans'; text-anchor: middle; fill: #222222" x="214.515121" y="247.205065" transform="rotate(-0 214.515121 247.205065)">0.3</text>
     </g>
    </g>
    <g id="xtick_5">
     <g id="line2d_114">
      <g>
       <use xlink:href="#mdf59aa37e0" x="320.581253" y="233.747057" style="fill: #222222; stroke: #222222; stroke-width: 0.8"/>
      </g>
     </g>
     <g id="text_5">
      <text style="font-size: 8.5px; font-family: 'DejaVu Sans'; text-anchor: middle; fill: #222222" x="320.581253" y="247.205065" transform="rotate(-0 320.581253 247.205065)">0.5</text>
     </g>
    </g>
    <g id="text_6">
     <text style="font-size: 9px; font-family: 'DejaVu Sans'; text-anchor: middle" x="187.998588" y="260.085651" transform="rotate(-0 187.998588 260.085651)">Fraction of channels dropped</text>
    </g>
   </g>
   <g id="matplotlib.axis_2">
    <g id="ytick_1">
     <g id="line2d_115">
      <path d="M 42.157656 233.747057 
L 333.83952 233.747057 
" clip-path="url(#pe62fa5dada)" style="fill: none; stroke: #dddddd; stroke-width: 0.5; stroke-linecap: square"/>
     </g>
     <g id="line2d_116">
      <defs>
       <path id="m17298894a0" d="M 0 0 
L -3.5 0 
" style="stroke: #222222; stroke-width: 0.8"/>
      </defs>
      <g>
       <use xlink:href="#m17298894a0" x="42.157656" y="233.747057" style="fill: #222222; stroke: #222222; stroke-width: 0.8"/>
      </g>
     </g>
     <g id="text_7">
      <text style="font-size: 8.5px; font-family: 'DejaVu Sans'; text-anchor: end; fill: #222222" x="35.157656" y="236.976061" transform="rotate(-0 35.157656 236.976061)">0.0</text>
     </g>
    </g>
    <g id="ytick_2">
     <g id="line2d_117">
      <path d="M 42.157656 193.064645 
L 333.83952 193.064645 
" clip-path="url(#pe62fa5dada)" style="fill: none; stroke: #dddddd; stroke-width: 0.5; stroke-linecap: square"/>
     </g>
     <g id="line2d_118">
      <g>
       <use xlink:href="#m17298894a0" x="42.157656" y="193.064645" style="fill: #222222; stroke: #222222; stroke-width: 0.8"/>
      </g>
     </g>
     <g id="text_8">
      <text style="font-size: 8.5px; font-family: 'DejaVu Sans'; text-anchor: end; fill: #222222" x="35.157656" y="196.293649" transform="rotate(-0 35.157656 196.293649)">0.2</text>
     </g>
    </g>
    <g id="ytick_3">
     <g id="line2d_119">
      <path d="M 42.157656 152.382233 
L 333.83952 152.382233 
" clip-path="url(#pe62fa5dada)" style="fill: none; stroke: #dddddd; stroke-width: 0.5; stroke-linecap: square"/>
     </g>
     <g id="line2d_120">
      <g>
       <use xlink:href="#m17298894a0" x="42.157656" y="152.382233" style="fill: #222222; stroke: #222222; stroke-width: 0.8"/>
      </g>
     </g>
     <g id="text_9">
      <text style="font-size: 8.5px; font-family: 'DejaVu Sans'; text-anchor: end; fill: #222222" x="35.157656" y="155.611237" transform="rotate(-0 35.157656 155.611237)">0.4</text>
     </g>
    </g>
    <g id="ytick_4">
     <g id="line2d_121">
      <path d="M 42.157656 111.699821 
L 333.83952 111.699821 
" clip-path="url(#pe62fa5dada)" style="fill: none; stroke: #dddddd; stroke-width: 0.5; stroke-linecap: square"/>
     </g>
     <g id="line2d_122">
      <g>
       <use xlink:href="#m17298894a0" x="42.157656" y="111.699821" style="fill: #222222; stroke: #222222; stroke-width: 0.8"/>
      </g>
     </g>
     <g id="text_10">
      <text style="font-size: 8.5px; font-family: 'DejaVu Sans'; text-anchor: end; fill: #222222" x="35.157656" y="114.928825" transform="rotate(-0 35.157656 114.928825)">0.6</text>
     </g>
    </g>
    <g id="ytick_5">
     <g id="line2d_123">
      <path d="M 42.157656 71.017409 
L 333.83952 71.017409 
" clip-path="url(#pe62fa5dada)" style="fill: none; stroke: #dddddd; stroke-width: 0.5; stroke-linecap: square"/>
     </g>
     <g id="line2d_124">
      <g>
       <use xlink:href="#m17298894a0" x="42.157656" y="71.017409" style="fill: #222222; stroke: #222222; stroke-width: 0.8"/>
      </g>
     </g>
     <g id="text_11">
      <text style="font-size: 8.5px; font-family: 'DejaVu Sans'; text-anchor: end; fill: #222222" x="35.157656" y="74.246413" transform="rotate(-0 35.157656 74.246413)">0.8</text>
     </g>
    </g>
    <g id="ytick_6">
     <g id="line2d_125">
      <path d="M 42.157656 30.334997 
L 333.83952 30.334997 
" clip-path="url(#pe62fa5dada)" style="fill: none; stroke: #dddddd; stroke-width: 0.5; stroke-linecap: square"/>
     </g>
     <g id="line2d_126">
      <g>
       <use xlink:href="#m17298894a0" x="42.157656" y="30.334997" style="fill: #222222; stroke: #222222; stroke-width: 0.8"/>
      </g>
     </g>
     <g id="text_12">
      <text style="font-size: 8.5px; font-family: 'DejaVu Sans'; text-anchor: end; fill: #222222" x="35.157656" y="33.564001" transform="rotate(-0 35.157656 33.564001)">1.0</text>
     </g>
    </g>
    <g id="text_13">
     <text style="font-size: 9px; font-family: 'DejaVu Sans'; text-anchor: middle" x="15.477891" y="130.006906" transform="rotate(-90 15.477891 130.006906)">ROC AUC</text>
    </g>
   </g>
   <g id="LineCollection_1">
    <path d="M 55.415923 103.738306 
L 55.415923 88.985718 
" clip-path="url(#pe62fa5dada)" style="fill: none; stroke: #1f5a7a; stroke-width: 1.5"/>
    <path d="M 108.448989 110.671827 
L 108.448989 96.585481 
" clip-path="url(#pe62fa5dada)" style="fill: none; stroke: #1f5a7a; stroke-width: 1.5"/>
    <path d="M 161.482055 117.361998 
L 161.482055 104.421648 
" clip-path="url(#pe62fa5dada)" style="fill: none; stroke: #1f5a7a; stroke-width: 1.5"/>
    <path d="M 214.515121 118.889604 
L 214.515121 106.795261 
" clip-path="url(#pe62fa5dada)" style="fill: none; stroke: #1f5a7a; stroke-width: 1.5"/>
    <path d="M 320.581253 126.132871 
L 320.581253 115.820086 
" clip-path="url(#pe62fa5dada)" style="fill: none; stroke: #1f5a7a; stroke-width: 1.5"/>
   </g>
   <g id="line2d_127">
    <defs>
     <path id="mb84c74880c" d="M 2.5 0 
L -2.5 -0 
" style="stroke: #1f5a7a"/>
    </defs>
    <g clip-path="url(#pe62fa5dada)">
     <use xlink:href="#mb84c74880c" x="55.415923" y="103.738306" style="fill: #1f5a7a; stroke: #1f5a7a"/>
     <use xlink:href="#mb84c74880c" x="108.448989" y="110.671827" style="fill: #1f5a7a; stroke: #1f5a7a"/>
     <use xlink:href="#mb84c74880c" x="161.482055" y="117.361998" style="fill: #1f5a7a; stroke: #1f5a7a"/>
     <use xlink:href="#mb84c74880c" x="214.515121" y="118.889604" style="fill: #1f5a7a; stroke: #1f5a7a"/>
     <use xlink:href="#mb84c74880c" x="320.581253" y="126.132871" style="fill: #1f5a7a; stroke: #1f5a7a"/>
    </g>
   </g>
   <g id="line2d_128">
    <g clip-path="url(#pe62fa5dada)">
     <use xlink:href="#mb84c74880c" x="55.415923" y="88.985718" style="fill: #1f5a7a; stroke: #1f5a7a"/>
     <use xlink:href="#mb84c74880c" x="108.448989" y="96.585481" style="fill: #1f5a7a; stroke: #1f5a7a"/>
     <use xlink:href="#mb84c74880c" x="161.482055" y="104.421648" style="fill: #1f5a7a; stroke: #1f5a7a"/>
     <use xlink:href="#mb84c74880c" x="214.515121" y="106.795261" style="fill: #1f5a7a; stroke: #1f5a7a"/>
     <use xlink:href="#mb84c74880c" x="320.581253" y="115.820086" style="fill: #1f5a7a; stroke: #1f5a7a"/>
    </g>
   </g>
   <g id="line2d_129">
    <path d="M 55.415923 96.362012 
L 108.448989 103.628654 
L 161.482055 110.891823 
L 214.515121 112.842433 
L 320.581253 120.976479 
" clip-path="url(#pe62fa5dada)" style="fill: none; stroke: #1f5a7a; stroke-width: 1.5; stroke-linecap: square"/>
    <defs>
     <path id="m8daab5919e" d="M 0 2 
C 0.530406 2 1.03916 1.789267 1.414214 1.414214 
C 1.789267 1.03916 2 0.530406 2 0 
C 2 -0.530406 1.789267 -1.03916 1.414214 -1.414214 
C 1.03916 -1.789267 0.530406 -2 0 -2 
C -0.530406 -2 -1.03916 -1.789267 -1.414214 -1.414214 
C -1.789267 -1.03916 -2 -0.530406 -2 0 
C -2 0.530406 -1.789267 1.03916 -1.414214 1.414214 
C -1.03916 1.789267 -0.530406 2 0 2 
z
" style="stroke: #1f5a7a"/>
    </defs>
    <g clip-path="url(#pe62fa5dada)">
     <use xlink:href="#m8daab5919e" x="55.415923" y="96.362012" style="fill: #1f5a7a; stroke: #1f5a7a"/>
     <use xlink:href="#m8daab5919e" x="108.448989" y="103.628654" style="fill: #1f5a7a; stroke: #1f5a7a"/>
     <use xlink:href="#m8daab5919e" x="161.482055" y="110.891823" style="fill: #1f5a7a; stroke: #1f5a7a"/>
     <use xlink:href="#m8daab5919e" x="214.515121" y="112.842433" style="fill: #1f5a7a; stroke: #1f5a7a"/>
     <use xlink:href="#m8daab5919e" x="320.581253" y="120.976479" style="fill: #1f5a7a; stroke: #1f5a7a"/>
    </g>
   </g>
   <g id="patch_3">
    <path d="M 42.157656 233.747057 
L 42.157656 26.266756 
" style="fill: none; stroke: #222222; stroke-width: 0.8; stroke-linejoin: miter; stroke-linecap: square"/>
   </g>
   <g id="patch_4">
    <path d="M 42.157656 233.747057 
L 333.83952 233.747057 
" style="fill: none; stroke: #222222; stroke-width: 0.8; stroke-linejoin: miter; stroke-linecap: square"/>
   </g>
   <g id="text_14">
    <text style="font-size: 9.5px; font-family: 'DejaVu Sans'; text-anchor: start; fill: #222222" x="42.157656" y="16.266756" transform="rotate(-0 42.157656 16.266756)">Channel dropout: 109 paired subjects</text>
   </g>
   <g id="legend_1">
    <g id="LineCollection_2">
     <path d="M 56.407656 226.320299 
L 56.407656 218.820299 
" style="fill: none; stroke: #1f5a7a; stroke-width: 1.5"/>
    </g>
    <g id="line2d_130">
     <g>
      <use xlink:href="#mb84c74880c" x="56.407656" y="226.320299" style="fill: #1f5a7a; stroke: #1f5a7a"/>
     </g>
    </g>
    <g id="line2d_131">
     <g>
      <use xlink:href="#mb84c74880c" x="56.407656" y="218.820299" style="fill: #1f5a7a; stroke: #1f5a7a"/>
     </g>
    </g>
    <g id="line2d_132">
     <path d="M 48.907656 222.570299 
L 63.907656 222.570299 
" style="fill: none; stroke: #1f5a7a; stroke-width: 1.5; stroke-linecap: square"/>
    </g>
    <g id="line2d_133">
     <g>
      <use xlink:href="#m8daab5919e" x="56.407656" y="222.570299" style="fill: #1f5a7a; stroke: #1f5a7a"/>
     </g>
    </g>
    <g id="text_15">
     <text style="font-size: 7.5px; font-family: 'DejaVu Sans'; text-anchor: start; fill: #222222" x="69.907656" y="225.195299" transform="rotate(-0 69.907656 225.195299)">Mean and 95% CI</text>
    </g>
   </g>
  </g>
  <g id="text_16">
   <text style="font-weight: 700; font-size: 11px; font-family: 'DejaVu Sans'; text-anchor: start; fill: #222222" x="8.95176" y="16.997422" transform="rotate(-0 8.95176 16.997422)">B</text>
  </g>
 </g>
 <defs>
  <clipPath id="pe62fa5dada">
   <rect x="42.157656" y="26.266756" width="291.681864" height="207.480301"/>
  </clipPath>
 </defs>
</svg>
